<svg width="16" height="13" viewBox="0 0 16 13" fill="none" xmlns="http://www.w3.org/2000/svg">
<path d="M15.985 1.5282C15.3967 1.79564 14.7625 1.97138 14.1053 2.05544C14.7777 1.65046 15.2973 1.00861 15.5418 0.236872C14.9076 0.618923 14.2047 0.886359 13.4635 1.03918C12.8598 0.382051 12.0117 0 11.0489 0C9.25328 0 7.7862 1.46708 7.7862 3.278C7.7862 3.53779 7.81677 3.78995 7.87025 4.02682C5.15005 3.88928 2.72784 2.58267 1.11559 0.603641C0.832871 1.08503 0.67241 1.65046 0.67241 2.24646C0.67241 3.38497 1.24549 4.39359 2.13185 4.96666C1.58933 4.96666 1.08503 4.81384 0.641846 4.58461V4.60754C0.641846 6.19687 1.77272 7.52641 3.27036 7.82441C2.78961 7.95655 2.28469 7.97486 1.79564 7.87789C2.00318 8.52928 2.40962 9.09924 2.95785 9.50767C3.50608 9.9161 4.16852 10.1425 4.85205 10.1549C3.69342 11.0722 2.25717 11.568 0.779384 11.5609C0.519589 11.5609 0.259795 11.5456 0 11.515C1.45179 12.4472 3.17867 12.9897 5.02779 12.9897C11.0489 12.9897 14.3575 7.99251 14.3575 3.66005C14.3575 3.51487 14.3575 3.37733 14.3498 3.23215C14.9917 2.77369 15.5418 2.19297 15.985 1.5282Z" fill="white"/>
</svg>
