<svg width="14" height="14" viewBox="0 0 14 14" fill="none" xmlns="http://www.w3.org/2000/svg">
<path d="M12.2256 0C12.6309 0 13.0196 0.161007 13.3062 0.447601C13.5928 0.734195 13.7538 1.1229 13.7538 1.5282V12.2256C13.7538 12.6309 13.5928 13.0196 13.3062 13.3062C13.0196 13.5928 12.6309 13.7538 12.2256 13.7538H1.5282C1.1229 13.7538 0.734195 13.5928 0.447601 13.3062C0.161007 13.0196 0 12.6309 0 12.2256V1.5282C0 1.1229 0.161007 0.734195 0.447601 0.447601C0.734195 0.161007 1.1229 0 1.5282 0H12.2256ZM11.8436 11.8436V7.79384C11.8436 7.1332 11.5811 6.49961 11.114 6.03246C10.6468 5.56531 10.0133 5.30287 9.35261 5.30287C8.70312 5.30287 7.94666 5.7002 7.57989 6.2962V5.44805H5.44805V11.8436H7.57989V8.07656C7.57989 7.4882 8.05364 7.00682 8.642 7.00682C8.92571 7.00682 9.1978 7.11952 9.39842 7.32014C9.59903 7.52075 9.71174 7.79285 9.71174 8.07656V11.8436H11.8436ZM2.96472 4.24841C3.30517 4.24841 3.63169 4.11316 3.87242 3.87242C4.11316 3.63169 4.24841 3.30517 4.24841 2.96472C4.24841 2.2541 3.67533 1.67338 2.96472 1.67338C2.62223 1.67338 2.29378 1.80943 2.05161 2.05161C1.80943 2.29378 1.67338 2.62223 1.67338 2.96472C1.67338 3.67533 2.2541 4.24841 2.96472 4.24841ZM4.02682 11.8436V5.44805H1.91026V11.8436H4.02682Z" fill="white"/>
</svg>
