<svg width="16" height="16" viewBox="0 0 16 16" fill="none" xmlns="http://www.w3.org/2000/svg">
<path d="M4.43179 0H10.8503C13.2954 0 15.282 1.98667 15.282 4.43179V10.8503C15.282 12.0256 14.8151 13.1529 13.984 13.984C13.1529 14.8151 12.0256 15.282 10.8503 15.282H4.43179C1.98667 15.282 0 13.2954 0 10.8503V4.43179C0 3.25641 0.46692 2.12916 1.29804 1.29804C2.12916 0.46692 3.25641 0 4.43179 0ZM4.27897 1.5282C3.54942 1.5282 2.84975 1.81802 2.33389 2.33389C1.81802 2.84975 1.5282 3.54942 1.5282 4.27897V11.0031C1.5282 12.5236 2.75841 13.7538 4.27897 13.7538H11.0031C11.7326 13.7538 12.4323 13.464 12.9482 12.9482C13.464 12.4323 13.7538 11.7326 13.7538 11.0031V4.27897C13.7538 2.75841 12.5236 1.5282 11.0031 1.5282H4.27897ZM11.6526 2.67436C11.9059 2.67436 12.1488 2.77499 12.3279 2.95411C12.5071 3.13323 12.6077 3.37617 12.6077 3.62949C12.6077 3.8828 12.5071 4.12574 12.3279 4.30486C12.1488 4.48398 11.9059 4.58461 11.6526 4.58461C11.3992 4.58461 11.1563 4.48398 10.9772 4.30486C10.7981 4.12574 10.6974 3.8828 10.6974 3.62949C10.6974 3.37617 10.7981 3.13323 10.9772 2.95411C11.1563 2.77499 11.3992 2.67436 11.6526 2.67436ZM7.64102 3.82051C8.65428 3.82051 9.62605 4.22303 10.3425 4.93951C11.059 5.656 11.4615 6.62776 11.4615 7.64102C11.4615 8.65428 11.059 9.62605 10.3425 10.3425C9.62605 11.059 8.65428 11.4615 7.64102 11.4615C6.62776 11.4615 5.656 11.059 4.93951 10.3425C4.22303 9.62605 3.82051 8.65428 3.82051 7.64102C3.82051 6.62776 4.22303 5.656 4.93951 4.93951C5.656 4.22303 6.62776 3.82051 7.64102 3.82051ZM7.64102 5.34872C7.03306 5.34872 6.45001 5.59023 6.02012 6.02012C5.59023 6.45001 5.34872 7.03306 5.34872 7.64102C5.34872 8.24898 5.59023 8.83204 6.02012 9.26193C6.45001 9.69182 7.03306 9.93333 7.64102 9.93333C8.24898 9.93333 8.83204 9.69182 9.26193 9.26193C9.69182 8.83204 9.93333 8.24898 9.93333 7.64102C9.93333 7.03306 9.69182 6.45001 9.26193 6.02012C8.83204 5.59023 8.24898 5.34872 7.64102 5.34872Z" fill="white"/>
</svg>
