<svg width="17" height="14" viewBox="0 0 17 14" fill="none" xmlns="http://www.w3.org/2000/svg">
<path d="M6.11149 8.02314C6.74449 8.02314 7.25764 7.50999 7.25764 6.87699C7.25764 6.24399 6.74449 5.73083 6.11149 5.73083C5.47848 5.73083 4.96533 6.24399 4.96533 6.87699C4.96533 7.50999 5.47848 8.02314 6.11149 8.02314Z" fill="white"/>
<path d="M10.696 8.02314C11.329 8.02314 11.8421 7.50999 11.8421 6.87699C11.8421 6.24399 11.329 5.73083 10.696 5.73083C10.063 5.73083 9.5498 6.24399 9.5498 6.87699C9.5498 7.50999 10.063 8.02314 10.696 8.02314Z" fill="white"/>
<path d="M11.0782 11.0795L11.8423 12.6077C11.8423 12.6077 15.0286 11.5915 16.0449 9.93339C16.0449 9.16929 16.4499 3.70595 13.7526 1.91031C12.6064 1.14621 10.6962 0.76416 10.6962 0.76416L9.93206 2.29236H8.40386H6.87565L6.13447 0.76416C6.13447 0.76416 4.22422 1.14621 3.07807 1.91031C0.380784 3.70595 0.785758 9.16929 0.785758 9.93339C1.80201 11.5915 4.98832 12.6077 4.98832 12.6077L5.75242 11.0795" stroke="white" stroke-width="1.5282" stroke-linecap="round" stroke-linejoin="round"/>
<path d="M3.43726 9.93341C7.25777 11.8437 9.55007 11.8437 13.3706 9.93341" stroke="white" stroke-width="1.5282" stroke-linecap="round" stroke-linejoin="round"/>
</svg>
