<svg width="61" height="37" viewBox="0 0 61 37" fill="none" xmlns="http://www.w3.org/2000/svg">
<path d="M5.08115 31.7107C2.91247 31.5451 0.210622 31.1346 0.0232941 30.9401C-0.0415502 30.8753 0.0232941 30.5296 0.289876 29.5574C0.477204 28.8444 1.70925 24.2282 3.02054 19.295C4.33904 14.3619 5.4558 10.2281 5.50624 10.1057C5.5927 9.88961 5.63593 9.87521 6.66623 9.61595C10.7514 8.61492 14.7718 8.37006 17.5961 8.9606C19.2748 9.30628 20.9536 10.1777 21.7029 11.0995C22.3513 11.8917 22.762 12.9143 22.762 13.7425C22.762 14.7075 22.3009 16.0975 21.7461 16.796C21.3138 17.3362 20.4132 18.1427 19.6135 18.7045C19.282 18.9277 19.0155 19.1366 19.0155 19.1654C19.0155 19.187 19.2244 19.3598 19.4838 19.5471C20.6582 20.3825 21.2346 21.6788 21.1553 23.328C21.0256 25.9926 18.8858 28.7652 15.7012 30.3856C14.5124 30.9905 12.0987 31.6387 10.5929 31.7539C9.29603 31.8475 6.67343 31.8331 5.08115 31.7107ZM11.5584 27.6057C12.1996 27.4617 13.1651 27.1016 13.6046 26.8352C14.1233 26.5327 14.7718 25.9278 15.0383 25.5029C15.2689 25.1428 15.4923 24.5018 15.6292 23.8033C15.7732 23.1047 15.5283 22.4854 14.9879 22.1469C14.4908 21.83 13.9576 21.686 13.0066 21.6067C12.0195 21.5203 9.05826 21.4987 8.45305 21.5707L8.0856 21.614L7.96312 22.0965C7.89827 22.3557 7.78299 22.8022 7.71094 23.0759C7.63889 23.3568 7.48759 23.9041 7.37952 24.3002C7.27865 24.6963 7.14175 25.2004 7.08412 25.4164C6.7671 26.5831 6.623 27.1808 6.623 27.3609C6.623 27.5409 6.65182 27.5697 6.93281 27.6202C7.99194 27.8002 10.7298 27.793 11.5584 27.6057ZM14.1666 17.7178C15.6868 17.3434 16.4721 16.58 16.7531 15.2405C17.0413 13.8865 16.2416 13.0007 14.4764 12.6983C13.3812 12.511 11.4935 12.6407 10.6722 12.9647C10.5785 13.0007 10.456 13.152 10.3984 13.296C10.2903 13.5409 9.26 17.3434 9.20236 17.6746C9.18075 17.7971 9.23118 17.8259 9.57702 17.8691C9.79316 17.8907 10.7874 17.9051 11.7745 17.8907C13.2948 17.8691 13.6694 17.8403 14.1666 17.7178Z" fill="#7A7A7A"/>
<path d="M23.807 31.4155C22.6182 31.4011 21.6095 31.3795 21.5591 31.3651C21.4654 31.3219 21.5159 31.1202 23.1298 25.0924C24.7581 19.0142 25.8316 15.0677 25.9973 14.5348C26.1486 14.045 26.2351 13.9658 26.5521 13.9658C26.7899 13.9658 26.8331 14.1099 26.7322 14.5924C26.689 14.8156 26.6674 15.0101 26.6818 15.0317C26.7034 15.0461 27.7121 15.0893 28.9369 15.1253C30.1546 15.1613 31.2785 15.2261 31.4226 15.2693C31.7396 15.3485 31.9846 15.6582 31.9846 15.9751C31.9846 16.1767 31.2137 19.079 28.5479 28.8733C28.2092 30.1192 27.9066 31.2139 27.8706 31.3075C27.813 31.4587 27.7841 31.4659 26.8907 31.4515C26.3792 31.4371 24.9958 31.4227 23.807 31.4155ZM23.7206 30.22C23.8214 29.7951 23.7638 29.7375 23.2739 29.7375C22.9064 29.7375 22.8272 29.7591 22.7335 29.8959C22.575 30.1192 22.5822 30.4361 22.7479 30.4793C22.8127 30.5009 23.0505 30.5081 23.2667 30.5081C23.6557 30.4937 23.6557 30.4937 23.7206 30.22ZM25.2336 30.4865C25.5362 30.4433 25.5722 30.4145 25.6515 30.1912C25.7812 29.8023 25.7163 29.7375 25.176 29.7375C24.7004 29.7375 24.7004 29.7375 24.5924 29.9896C24.4555 30.3136 24.4627 30.4433 24.6212 30.4793C24.8157 30.5297 24.8806 30.5297 25.2336 30.4865ZM27.4671 30.3929C27.4959 30.3641 27.5248 30.2128 27.5392 30.0544L27.5536 29.7735L27.1213 29.7519C26.8835 29.7447 26.6458 29.7663 26.5953 29.7951C26.4873 29.8671 26.3504 30.3785 26.4152 30.4793C26.4584 30.5441 27.3735 30.4721 27.4671 30.3929ZM24.0664 28.7941C24.1673 28.6933 24.2033 28.578 24.1889 28.4196C24.1673 28.1963 24.1601 28.1891 23.7566 28.1675C23.2595 28.1387 23.0505 28.2972 23.0505 28.6933V28.9453H23.4828C23.8214 28.9453 23.9439 28.9165 24.0664 28.7941ZM26.0333 28.6284C26.1702 28.3548 26.1702 28.3476 26.0333 28.2468C25.8676 28.1243 25.2336 28.1675 25.0967 28.3116C25.0463 28.362 24.9886 28.506 24.9598 28.6356C24.9094 28.9021 24.9814 28.9381 25.5362 28.9237C25.882 28.9093 25.9037 28.8949 26.0333 28.6284ZM27.8202 28.8589C27.885 28.8085 27.9571 28.6573 27.9859 28.5348C28.0291 28.326 28.0147 28.29 27.8418 28.2252C27.3446 28.0379 26.9051 28.2107 26.8259 28.6356C26.7827 28.8445 26.7971 28.8661 26.9844 28.8949C27.4095 28.9597 27.7121 28.9453 27.8202 28.8589ZM24.5491 27.1953C24.6644 26.8712 24.6572 26.7344 24.5203 26.684C24.3618 26.6264 23.7494 26.6336 23.6557 26.6984C23.5549 26.756 23.4035 27.2889 23.454 27.3754C23.4756 27.4042 23.7134 27.433 23.9799 27.433C24.4627 27.433 24.4627 27.433 24.5491 27.1953ZM26.4224 27.1953C26.5953 26.7128 26.5305 26.6408 25.8965 26.6408C25.529 26.6408 25.5074 26.648 25.4353 26.864C25.2696 27.3465 25.3273 27.4042 26.0045 27.4258C26.3143 27.433 26.3432 27.4186 26.4224 27.1953ZM28.3821 27.0657C28.483 26.6912 28.4254 26.6408 27.8634 26.6408C27.4743 26.6408 27.4383 26.6552 27.3374 26.8568C27.2798 26.9721 27.2294 27.1305 27.2294 27.2169C27.2294 27.3465 27.2726 27.361 27.7697 27.361H28.3029L28.3821 27.0657ZM24.9454 25.6902C25.0102 25.6397 25.0895 25.4885 25.1111 25.3661C25.1543 25.1572 25.1327 25.1212 24.967 25.0564C24.7148 24.9628 24.3762 24.9628 24.2033 25.0564C24.0592 25.1356 23.8791 25.5893 23.9511 25.7046C24.016 25.8054 24.8013 25.791 24.9454 25.6902ZM26.8979 25.6181C26.9628 25.5317 27.0132 25.3661 27.0132 25.2581C27.0132 25.0132 26.8115 24.9412 26.3287 25.0132C25.9685 25.0708 25.8604 25.2004 25.8604 25.5533V25.7766H26.3215C26.725 25.7766 26.8043 25.755 26.8979 25.6181ZM28.7784 25.6614C28.8505 25.5821 28.8865 25.4525 28.8721 25.2797L28.8505 25.0204L28.447 24.9988C28.0795 24.9772 28.0219 24.9988 27.885 25.1716C27.7985 25.2797 27.7337 25.4597 27.7337 25.5677C27.7337 25.7766 27.7337 25.7766 28.1948 25.7766C28.5262 25.7766 28.692 25.7406 28.7784 25.6614ZM27.5896 23.1768C27.6905 22.7951 27.6328 22.7519 27.0348 22.7519H26.5881L26.5161 23.0255C26.3864 23.472 26.3864 23.472 26.9772 23.472H27.5104L27.5896 23.1768Z" fill="#7A7A7A"/>
<path d="M31.2206 31.2714C31.2423 31.1994 31.4224 30.4936 31.6241 29.7014C31.8259 28.9093 32.2509 27.3033 32.5608 26.1366C32.8706 24.9699 33.4398 22.8166 33.8216 21.3475C34.7078 17.9483 35.0609 16.7096 35.1978 16.5008C35.5724 15.9318 39.1172 15.0748 42.1073 14.8228C43.8293 14.6787 46.7256 14.8444 46.9778 15.0964C47.0282 15.1468 46.985 15.4205 46.8265 16.0254C46.3942 17.6674 46.1636 18.4668 46.106 18.5244C46.0772 18.5604 45.7458 18.5172 45.3639 18.438C44.9892 18.3588 44.2399 18.258 43.6924 18.2148C42.871 18.1499 42.5972 18.1571 42.0496 18.2508C41.0554 18.4236 39.9314 18.8341 39.708 19.0934C39.6216 19.2014 39.038 21.3043 37.7195 26.2806C37.2656 28.0018 36.7756 29.8599 36.6243 30.4072L36.3578 31.3938H33.7712C31.3359 31.3938 31.1846 31.3866 31.2206 31.2714Z" fill="#7A7A7A"/>
<path d="M44.449 31.3435C44.449 31.3147 44.7948 29.9967 45.2127 28.4052C48.7071 15.2117 48.354 16.4648 48.5774 16.3208C49.3123 15.8382 52.4176 15.1181 54.8961 14.8588C56.6901 14.6716 59.9468 14.8084 60.2277 15.0893C60.2998 15.1613 59.4856 18.402 59.3704 18.5245C59.3415 18.5533 58.9741 18.5101 58.5634 18.4236C57.9438 18.2868 57.5691 18.258 56.4091 18.258C55.0546 18.2508 54.9826 18.258 54.3918 18.4524C53.5128 18.7405 53.0012 19.007 52.8931 19.2302C52.8499 19.3383 52.0934 22.0893 51.2216 25.3517C50.357 28.6068 49.6005 31.3002 49.5501 31.3363C49.4348 31.4083 44.449 31.4155 44.449 31.3435Z" fill="#7A7A7A"/>
<path d="M8.25872 6.68493C7.61028 6.5337 7.10593 6.1232 6.82494 5.50386C6.57277 4.95653 6.58718 3.91228 6.86096 3.1273C7.11314 2.39273 7.38692 1.91742 7.84804 1.4133C8.79188 0.376258 10.4346 -0.192675 11.7531 0.0593841C12.3223 0.167409 13.0932 0.412266 13.1509 0.505888C13.2013 0.59951 12.9779 1.53573 12.8699 1.67976C12.7906 1.77338 12.7042 1.75178 12.1854 1.54293C11.4433 1.24046 10.8957 1.12523 10.5355 1.19005C9.50517 1.37729 8.55412 2.42874 8.35238 3.62422C8.20108 4.45961 8.35238 5.00694 8.8207 5.36702C9.28182 5.7127 9.95908 5.6767 11.2848 5.23019C11.6522 5.10776 11.9693 5.02854 11.9909 5.04295C12.0413 5.10056 11.6739 6.23123 11.573 6.31044C11.1623 6.64172 9.07287 6.87938 8.25872 6.68493Z" fill="#7A7A7A"/>
<path d="M13.4681 6.69216C13.288 6.65615 13.0358 6.60574 12.9133 6.58413C12.7548 6.55533 12.6755 6.49771 12.6755 6.41849C12.6755 6.28166 13.7923 2.06868 14.0949 1.06765C14.2318 0.585133 14.3183 0.426696 14.4407 0.369082C15.0676 0.0810152 16.9409 -0.0486151 17.7262 0.138629C18.7133 0.369082 19.232 0.851595 19.232 1.54296C19.232 1.93185 19.1095 2.1623 18.634 2.63761L18.1945 3.09132L18.3818 3.28576C18.8502 3.78988 18.9078 4.26519 18.598 4.92775C18.3242 5.49668 18.0648 5.79195 17.5461 6.13043C16.8256 6.59133 16.35 6.70656 14.9811 6.73537C14.3255 6.74977 13.6482 6.72817 13.4681 6.69216ZM15.8457 5.6047C16.6815 5.46787 17.2651 4.91334 17.2002 4.3084C17.157 3.8907 16.912 3.78988 15.8817 3.75387L14.9811 3.72507L14.9019 3.92671C14.7722 4.26519 14.5488 5.20141 14.5488 5.41026C14.5488 5.55429 14.592 5.61191 14.7145 5.63351C15.0171 5.69112 15.3774 5.68392 15.8457 5.6047ZM17.0273 2.5872C17.5533 2.33514 17.7478 1.69419 17.402 1.37012C17.2579 1.24049 17.1138 1.19728 16.6527 1.16847C15.8745 1.11086 15.716 1.16127 15.5791 1.49254C15.4206 1.87423 15.2549 2.52959 15.2981 2.63041C15.3846 2.85366 16.5446 2.82486 17.0273 2.5872Z" fill="#7A7A7A"/>
<path d="M19.1599 6.51193C19.1599 6.35349 20.3343 1.86684 20.6801 0.700169L20.817 0.224858L21.379 0.196051C22.2292 0.145639 25.8461 0.167244 25.8893 0.217656C25.9181 0.239261 25.8749 0.49132 25.8101 0.779387L25.6804 1.29071L24.1673 1.29791C23.3388 1.29791 22.5246 1.31951 22.3733 1.34832C22.0923 1.39873 22.0851 1.40593 21.9554 1.90285C21.7393 2.75265 21.6312 2.68783 23.3532 2.73104C24.1673 2.75265 24.859 2.78866 24.8878 2.81746C24.9166 2.83907 24.8734 3.08393 24.7942 3.35759L24.6573 3.8473L23.065 3.86891L21.4727 3.88331L21.2854 4.46665C21.1845 4.78352 21.1052 5.1364 21.1052 5.25883V5.46768L22.4598 5.47488C23.7422 5.47488 24.4916 5.51089 24.5492 5.57571C24.5636 5.59011 24.542 5.77735 24.4916 5.9862C24.3258 6.68477 24.6068 6.61995 21.7177 6.61995C19.4697 6.61995 19.1599 6.60555 19.1599 6.51193Z" fill="#7A7A7A"/>
<path d="M41.4518 36.2189C41.3941 36.1613 41.4373 35.9597 41.6247 35.4772C42.0065 34.4617 42.0137 34.4329 41.848 34.3465C41.7472 34.2889 41.7111 34.1953 41.7111 33.9504C41.7111 33.5327 41.7688 33.4103 41.9633 33.4103C42.165 33.4103 42.2659 33.5255 42.3019 33.7992C42.3163 33.972 42.3668 34.0224 42.5613 34.0728C42.7847 34.1304 42.8711 34.2889 42.7198 34.3825C42.6838 34.4041 42.6478 34.4905 42.6478 34.5697C42.6478 34.6706 42.6982 34.7066 42.8567 34.7066C42.972 34.7066 43.1161 34.7498 43.1737 34.8074C43.2962 34.937 43.5484 36.1397 43.4619 36.2261C43.4259 36.2621 43.3034 36.2621 43.1881 36.2333C43.0008 36.1829 42.9648 36.1253 42.8567 35.686C42.7847 35.4123 42.6766 35.1387 42.619 35.0739C42.5109 34.973 42.4965 34.973 42.3884 35.0739C42.3308 35.1387 42.2011 35.4267 42.1146 35.722C41.9633 36.2117 41.9345 36.2549 41.74 36.2765C41.6247 36.291 41.495 36.2621 41.4518 36.2189Z" fill="#7A7A7A"/>
<path d="M33.8001 36.0245C33.6632 35.9597 33.5119 35.8301 33.447 35.7436C33.2597 35.4556 33.1228 33.3311 33.2885 33.2302C33.3317 33.2014 33.4758 33.2014 33.6127 33.223L33.8577 33.2735V34.3321C33.8577 35.578 33.9153 35.7508 34.29 35.7508C34.6647 35.7508 34.7295 35.5492 34.7439 34.3249L34.7583 33.3023L35.0321 33.2807C35.2915 33.2591 35.2987 33.2663 35.2987 33.5039C35.2987 33.6407 35.3203 33.8568 35.3419 33.9792C35.3851 34.2025 35.3923 34.2025 35.8463 34.2025C36.0912 34.2025 36.3218 34.2385 36.3434 34.2745C36.3722 34.3177 36.3722 34.4473 36.3434 34.5626C36.2714 34.8866 35.9759 34.937 35.7598 34.6706C35.522 34.3681 35.414 34.4689 35.3203 35.0667C35.2266 35.6428 35.1186 35.8156 34.6863 36.0101C34.3332 36.1757 34.1099 36.1757 33.8001 36.0245Z" fill="#7A7A7A"/>
<path d="M47.0574 36.0319C46.7044 35.787 47.0358 35.3765 47.4393 35.5565C47.6482 35.6574 47.6699 35.859 47.4897 36.0247C47.324 36.1759 47.2592 36.1759 47.0574 36.0319Z" fill="#7A7A7A"/>
<path d="M21.3142 35.8805C21.2998 34.8867 21.1845 33.6912 21.1052 33.5976C20.9755 33.4391 20.7234 33.4535 20.5577 33.6336C20.4424 33.7632 20.4136 33.9216 20.3992 34.6058L20.3703 35.4268H20.0893H19.8083V34.6706C19.8083 33.4535 19.9669 33.2447 20.8747 33.2375C21.379 33.2303 21.415 33.2375 21.6096 33.4607C21.7753 33.648 21.8185 33.7776 21.8618 34.2241C21.9194 34.8218 21.8906 35.8949 21.8113 35.9669C21.7897 35.9957 21.6672 36.0317 21.5447 36.0461C21.343 36.0821 21.3214 36.0677 21.3142 35.8805Z" fill="#7A7A7A"/>
<path d="M22.5461 35.6285C22.5461 35.0308 22.8343 34.4042 23.2666 34.0441C23.5692 33.7993 23.5764 33.7849 23.49 33.5544C23.3603 33.1799 23.3819 33.1223 23.6629 33.1223C23.9439 33.1223 24.0087 33.2087 24.16 33.7849L24.2537 34.1666L24.6067 34.1882C25.1399 34.217 25.2624 34.2602 25.3056 34.433C25.4137 34.8363 25.0102 34.9948 24.7364 34.6563C24.6212 34.5122 24.5491 34.4762 24.4987 34.5266C24.441 34.5843 24.4771 34.8003 24.614 35.2684C24.722 35.6645 24.7725 35.9598 24.7364 35.9958C24.7004 36.0318 24.5707 36.0462 24.4554 36.0246C24.2465 35.9958 24.2249 35.9598 23.9943 35.2036C23.843 34.7283 23.7133 34.4186 23.6557 34.4186C23.4035 34.4186 23.2018 34.8507 23.0865 35.6573C23.0505 35.9166 23.0001 35.9958 22.8848 36.0318C22.5678 36.1182 22.5461 36.0894 22.5461 35.6285Z" fill="#7A7A7A"/>
<path d="M26.2206 36.0172C26.1197 36.0028 26.0188 35.9668 25.99 35.9452C25.9612 35.9164 25.9684 35.4051 25.9972 34.8146C26.0549 33.5903 26.1269 33.403 26.5592 33.259C26.7105 33.2086 26.9843 33.1942 27.2149 33.2158C27.7913 33.2734 27.9498 33.4534 28.029 34.1376C28.1083 34.8794 28.1083 35.7724 28.0218 35.938C27.9426 36.082 27.6327 36.1253 27.5535 35.9956C27.5247 35.9524 27.4814 35.4123 27.4526 34.7929L27.4094 33.6695L27.1644 33.6191C26.6529 33.511 26.5808 33.6695 26.5808 34.9154C26.5808 35.9092 26.5304 36.0676 26.2206 36.0172Z" fill="#7A7A7A"/>
<path d="M29.9891 36.0244C29.8306 35.9956 29.8234 35.9668 29.8234 35.2395C29.8234 34.5481 29.8161 34.4905 29.6865 34.4905C29.6072 34.4905 29.4487 34.5913 29.3334 34.7137C29.1461 34.9154 29.1101 34.9226 28.9371 34.8434C28.7426 34.7569 28.7066 34.6561 28.7858 34.368C28.8291 34.2168 28.8723 34.2024 29.3262 34.2024H29.8234V33.8423V33.4822H29.4271C29.074 33.4822 29.0164 33.4606 28.9444 33.3094C28.8507 33.0861 28.9083 32.9205 29.1173 32.8341C29.2542 32.7837 29.3118 32.8053 29.4631 32.9781C29.6144 33.151 29.7081 33.187 30.0395 33.2086L30.4358 33.2302L30.4142 33.6263C30.4069 33.8423 30.4214 34.0584 30.4502 34.1088C30.4862 34.1592 30.7168 34.2024 30.9761 34.2168C31.4445 34.2384 31.4445 34.2384 31.4661 34.4689C31.4805 34.6345 31.4445 34.7209 31.322 34.8074C31.0986 34.9658 31.0698 34.9586 30.9401 34.7065C30.8753 34.5769 30.7744 34.4905 30.6879 34.4905C30.4646 34.4905 30.3781 34.7497 30.4214 35.2611C30.4718 35.7436 30.3925 36.082 30.2412 36.0676C30.1908 36.0604 30.0755 36.0388 29.9891 36.0244Z" fill="#7A7A7A"/>
<path d="M44.2042 35.9884C44.0456 35.8948 44.0601 35.4699 44.233 34.9514C44.341 34.6489 44.4851 34.4184 44.7589 34.1448L45.1336 33.7703L45.0183 33.4462C44.9535 33.2662 44.9174 33.1077 44.9463 33.0933C44.9751 33.0717 45.1048 33.0861 45.2417 33.1077L45.4938 33.1581L45.9405 34.5193C46.1855 35.2682 46.3728 35.9092 46.3512 35.9452C46.3296 35.974 46.2071 36.0028 46.0702 36.0028H45.8325L45.5587 35.1962C45.4002 34.7569 45.2417 34.3824 45.1984 34.368C45.0543 34.3176 44.7373 35.0378 44.6869 35.5275C44.6509 35.938 44.6292 35.9956 44.4851 36.0244C44.3915 36.0388 44.269 36.0244 44.2042 35.9884Z" fill="#7A7A7A"/>
<path d="M36.9125 35.9093C36.8549 35.758 37.0062 34.9586 37.1359 34.6994C37.2079 34.5697 37.4097 34.3105 37.5898 34.116C37.9068 33.7704 37.914 33.7632 37.8347 33.4895C37.7195 33.115 37.7123 33.1222 37.9933 33.1222C38.2814 33.1222 38.3103 33.151 38.512 33.7343L38.6633 34.1664L39.0884 34.1881C39.744 34.2241 39.9818 34.5625 39.5351 34.8362C39.3478 34.9442 39.3406 34.9442 39.1532 34.721C38.7786 34.2745 38.7354 34.4761 39.0091 35.3331C39.11 35.6428 39.1893 35.9165 39.1893 35.9525C39.1893 35.9813 39.074 36.0029 38.9371 36.0029C38.6417 36.0029 38.5913 35.9309 38.3247 35.0667C38.1734 34.5697 38.1085 34.4545 37.9933 34.4545C37.8203 34.4545 37.561 34.9658 37.4961 35.4627C37.4745 35.6572 37.4169 35.8588 37.3736 35.9093C37.2728 36.0317 36.9629 36.0317 36.9125 35.9093Z" fill="#7A7A7A"/>
<path d="M47.0861 35.074C47.0573 35.038 47.0213 34.5987 46.9924 34.1017L46.9492 33.1943H47.2446H47.5472L47.54 33.8281C47.5328 34.7787 47.468 35.0956 47.2806 35.1244C47.2014 35.1388 47.1077 35.1172 47.0861 35.074Z" fill="#7A7A7A"/>
<path d="M31.5238 14.6717C31.1419 14.1315 29.2182 11.1644 29.103 10.934C28.9084 10.5667 28.9228 10.4731 29.1894 10.005C29.7442 9.02553 30.7385 8.39899 32.4172 7.95248C35.573 7.10989 36.207 6.85783 36.9203 6.15206C37.1653 5.91441 37.4823 5.51832 37.6336 5.27346C37.7849 5.0214 37.9434 4.84136 37.9794 4.86296C38.0443 4.90617 39.0818 6.44013 40.04 7.93088C40.3714 8.435 40.6308 8.91751 40.6308 9.01833C40.6308 9.292 39.968 10.2426 39.5429 10.5811C38.808 11.1644 38.1667 11.4165 36.0197 11.9638C35.2488 12.1583 34.4274 12.3959 34.1968 12.4895C33.2098 12.8856 32.3884 13.5626 31.8985 14.3908L31.6391 14.8373L31.5238 14.6717Z" fill="#7A7A7A"/>
</svg>
