<svg width="62" height="14" viewBox="0 0 62 14" fill="none" xmlns="http://www.w3.org/2000/svg">
<path d="M8.18365 11.2089H0.00012207V9.13738H0.772841V4.62728H0.00012207V2.55579H4.91396V4.62727H4.09807V9.13738H6.13155V7.7501H8.18365V11.2089Z" fill="#7A7A7A"/>
<path d="M31.0237 11.2089H22.8402V9.13738H23.6129V4.62728H22.8402V2.55579H27.7541V4.62727H26.9382V9.13738H28.9716V7.7501H31.0237V11.2089Z" fill="#7A7A7A"/>
<path d="M10.0621 11.1377C9.43361 10.2995 9.02843 9.33348 8.84658 8.23947C8.66341 7.15374 8.79487 6.02188 9.24095 4.84388C9.39603 4.43837 9.59513 4.05133 9.83462 3.68981C10.0858 3.31777 10.3686 2.96842 10.6798 2.64568C11.0231 2.28837 11.394 1.9591 11.7892 1.66098C13.579 0.301405 15.3599 -0.223522 17.1318 0.0861978C18.0099 0.235408 18.801 0.518971 19.5052 0.936888C20.2137 1.35909 20.8322 1.91835 21.3248 2.58238C22.3759 3.98402 22.7824 5.5879 22.5444 7.39403C22.3064 9.20012 21.3237 10.7594 19.5962 12.0718C17.926 13.3404 16.2069 13.8827 14.4388 13.6986C12.6695 13.5227 11.2106 12.6691 10.0621 11.1377ZM14.3979 7.84415C15.2358 8.96142 15.9087 9.63341 16.4167 9.86013C16.9185 10.099 17.3896 10.0511 17.8299 9.71646C18.2653 9.38573 18.4481 8.94827 18.3782 8.40406C18.3045 7.85523 17.8415 7.01247 16.9892 5.87578C16.1621 4.77278 15.4933 4.10143 14.983 3.86172C14.481 3.62297 14.0051 3.6745 13.5554 4.0163C13.1247 4.34349 12.9444 4.77912 13.0145 5.32319C13.0843 5.86727 13.5454 6.70759 14.3979 7.84415Z" fill="#7A7A7A"/>
<path d="M36.5739 11.2089H31.6726V9.13738H32.4638V4.62728H31.6726V2.55579H36.5739V4.62727H35.789V9.13738H36.5739V11.2089Z" fill="#7A7A7A"/>
<path d="M40.6639 11.2089H37.1345V9.13738H37.8886V4.62728H37.1345V2.55579H41.2077L44.3353 7.07818V4.62728H43.6368V2.55579H47.1042V4.62727H46.3564V11.321H43.5256L39.9037 6.08918V9.13738H40.6639V11.2089Z" fill="#7A7A7A"/>
<path d="M55.8507 11.2089H47.6488V9.13738H48.3163V4.62728H47.6365V2.55579H55.8507V5.32407H53.5947V4.62728H51.6417V5.95852H53.3413V7.71893H51.6417V9.13738H53.5947V8.4406H55.8507L55.8507 11.2089Z" fill="#7A7A7A"/>
<path d="M56.6376 5.85208V4.64934H56.75V4.87995H59.7193L56.6376 4.35996V3.76763L59.7193 3.15723H56.75V3.38782H56.6376V2.69604H56.75V2.92663H60.8833V2.69604H60.9958V3.67721L57.601 4.31476L60.9958 4.87092V5.85208H60.8833V5.62149H56.75V5.85208L56.6376 5.85208Z" fill="#7A7A7A" stroke="#7A7A7A" stroke-width="0.305193" stroke-miterlimit="10"/>
<path d="M56.6376 8.49258V7.28983H56.75V7.52042L58.0143 7.35312V6.68846L56.75 6.50309V6.73367H56.6376V6.03735H56.75V6.26797L60.9958 6.91906V7.6606L56.75 8.26199V8.49258H56.6376ZM58.1237 7.34409L60.4791 7.03662L58.1237 6.6975V7.34409Z" fill="#7A7A7A" stroke="#7A7A7A" stroke-width="0.305193" stroke-miterlimit="10"/>
<path d="M57.2426 11.0383C57.0683 11.0383 56.9189 10.9298 56.7943 10.7128C56.6697 10.4957 56.6074 10.2335 56.6074 9.92602C56.6074 9.62153 56.6697 9.36003 56.7943 9.14152C56.9189 8.92293 57.0683 8.81366 57.2426 8.81372H60.3912C60.5654 8.81372 60.7149 8.92299 60.8395 9.14152C60.9641 9.36005 61.0264 9.62155 61.0264 9.92602C61.0264 10.2335 60.9641 10.4957 60.8395 10.7128C60.7149 10.9298 60.5655 11.0383 60.3912 11.0383H59.6892V10.2968H60.6647C60.7336 10.2968 60.7923 10.2606 60.841 10.1883C60.8887 10.1092 60.9139 10.0185 60.9139 9.92602C60.9139 9.83353 60.8887 9.74281 60.841 9.66376C60.7924 9.59141 60.7336 9.55523 60.6647 9.55525H56.9691C56.9002 9.55525 56.8414 9.59142 56.7928 9.66376C56.7451 9.74281 56.7199 9.83352 56.7199 9.92602C56.7199 10.0185 56.7451 10.1092 56.7928 10.1883C56.8414 10.2606 56.9002 10.2968 56.9691 10.2968H58.8838V9.92602H58.9962V11.0383H57.2426Z" fill="#7A7A7A" stroke="#7A7A7A" stroke-width="0.305193" stroke-miterlimit="10"/>
</svg>
