<svg width="49" height="24" viewBox="0 0 49 24" fill="none" xmlns="http://www.w3.org/2000/svg">
<path fill-rule="evenodd" clip-rule="evenodd" d="M32.6456 8.73763C32.3008 9.89914 28.8785 9.13678 27.8049 7.23091C29.2141 7.38783 30.8023 6.13642 30.829 4.71044L32.6456 8.73763ZM34.0459 8.58757C34.2025 8.51795 34.5178 8.36103 34.5961 8.02463L30.9141 0.0196317C30.6679 -0.0117515 30.4892 -0.0342972 30.1761 0.189955L34.0459 8.58757ZM35.7013 6.84972C37.267 4.47278 35.9471 0.571122 32.5737 0.0238747L35.7013 6.84972ZM35.3556 11.9675C35.849 11.5523 36.7172 11.5425 37.2794 11.8092C37.5162 11.9282 37.7432 12.0865 37.8909 12.2941L36.8059 13.9852C36.6679 13.876 36.5691 13.8269 36.3917 13.738C35.8539 13.5052 35.2868 13.6412 34.961 13.9355V18.8701C34.9538 19.7231 35.1016 20.5017 35.5431 20.9071H33.077C32.5636 20.5119 32.4358 19.8787 32.3862 19.3249L32.3667 12.7638C32.3888 12.2323 32.2532 11.9972 32.0409 11.7007L34.5961 11.7105C34.8031 11.859 34.8129 12.1162 34.9215 12.314L35.3556 11.9675ZM38.4731 13.5893C38.4536 12.9662 38.5915 12.2199 38.1848 11.6811H40.5548C40.7127 11.7995 40.8014 11.9972 40.8506 12.1852C40.9791 12.3532 40.9693 12.5906 41.028 12.7884L41.0479 19.7799C41.1467 20.1951 41.3046 20.6155 41.6105 20.9418L39.0748 20.9467C38.2462 20.1431 38.5175 18.8208 38.4536 17.4559L38.4731 13.5893ZM42.2219 13.6589C42.4782 12.9466 43.2775 12.5906 43.8597 12.2051C44.7474 11.8786 45.7241 11.0678 46.7204 11.7305C47.5491 12.2741 48.2793 12.8874 48.8021 13.7279C48.9303 14.0541 48.9893 14.4199 49.078 14.7661C49.078 15.231 49.1768 15.5772 49.167 16.0417C49.1967 16.5461 49.1967 17.0012 49.167 17.4955C49.1374 18.336 48.7428 19.0875 48.082 19.6711C47.0952 20.5511 45.8523 21.5498 44.5106 20.8679C43.3072 20.304 41.8866 19.1866 41.9753 17.6537C41.9257 16.5661 41.8768 15.6266 42.0246 14.5684C42.0836 14.2621 42.0542 13.9257 42.2219 13.6589ZM44.688 18.6031C44.8064 19.0382 45.0334 19.572 45.5562 19.6315C45.8621 19.6413 46.0891 19.3844 46.2665 19.1666C46.8189 18.079 46.74 16.8923 46.74 15.6563C46.5626 14.7367 46.7795 13.4807 45.7929 12.9171C45.4479 12.7883 45.1814 13.026 44.9642 13.2431C44.5798 13.8269 44.5354 14.4942 44.5106 15.2359C44.3824 16.4226 44.5204 17.4066 44.688 18.6031ZM50.923 20.9267C50.1586 20.5266 50.0402 19.3942 50.0575 16.6426L50.0747 12.4248L48.6245 12.4225L48.9499 11.6416H50.0747V9.6438L52.7679 8.64511L52.7666 11.5748L54.001 11.5772L53.6755 12.4422L52.7679 12.4412L52.763 19.7404C52.822 20.3288 53.0193 20.6747 53.3005 20.9267H50.923ZM26.2998 12.7638C26.2835 12.2313 26.186 11.9972 25.974 11.7007L28.5292 11.7105C28.7363 11.859 28.7461 12.1162 28.8547 12.314L29.2888 11.9675C29.7819 11.5523 30.65 11.5425 31.2122 11.8092C31.4493 11.9282 31.676 12.0865 31.8241 12.2941L30.739 13.9852C30.6008 13.876 30.5023 13.8269 30.3245 13.738C29.7871 13.5052 29.2196 13.6412 28.8941 13.9355V18.8701C28.8866 19.7231 29.0347 20.5017 29.4763 20.9071H27.0098C26.4968 20.5119 26.3507 19.9225 26.3194 19.3249L26.2998 12.7638ZM6.97357 15.3595L6.03986 17.2739C5.40586 18.404 4.51686 19.7894 3.152 20.1336C2.62369 20.319 2.157 20.1513 1.64628 20.116L0 22.8166C0.123279 22.949 0.296776 23.0608 0.466691 23.1255C3.36334 24.2331 4.52988 23.0418 7.38285 16.5811L10.077 22.3357H13.665L11.9701 18.4524L12.9296 16.4445L15.58 22.2474L19.0138 22.2697L13.0046 9.03085L10.2364 10.4098L12.4058 15.35L11.4549 17.2915L7.47938 8.6886L4.56317 10.178L6.97357 15.3595ZM18.0028 17.6933C18.0719 16.7341 18.5947 15.8342 19.4828 15.3497C20.3607 14.8057 21.3867 14.5883 22.2943 14.1136C22.4521 13.9852 22.6495 13.8269 22.6592 13.619C22.6693 13.3621 22.5409 13.1643 22.3142 13.075C20.933 12.7785 19.7887 13.6488 18.7823 14.5092C18.9104 13.876 19.0092 13.1842 19.305 12.5906C19.4531 12.4323 19.5418 12.2149 19.7391 12.0963C20.7158 11.6115 21.9392 11.4732 23.0343 11.5523C23.9318 11.6115 24.7605 12.2545 25.0664 13.075C25.2242 13.4611 25.2144 13.8959 25.2438 14.2915L25.2539 19.6511C25.2637 20.116 25.4809 20.5511 25.7571 20.9267H23.2019C22.896 20.6498 22.7453 20.304 22.6592 19.8689C21.944 20.5017 20.452 21.4413 19.5617 20.8182C18.6394 20.4027 17.7957 19.0084 18.0028 17.6933ZM22.5311 15.8293C22.5115 15.4585 22.2451 15.419 22.0575 15.419C21.446 15.5079 20.9194 16.0211 20.6272 16.5461C20.3656 17.0159 20.304 17.4115 20.2818 17.8218C20.2795 18.2644 20.2521 18.5933 20.4298 18.9293C20.5283 19.147 20.7455 19.2461 20.9526 19.3053C21.3472 19.3844 21.7125 19.2755 22.0181 19.0679C22.7382 18.6622 22.61 17.8515 22.6201 17.1297L22.5311 15.8293ZM60.6804 19.6809C60.8085 19.8123 60.8725 19.9676 60.8725 20.1461C60.8725 20.3298 60.8082 20.4877 60.6791 20.6188C60.5502 20.7495 60.3947 20.8149 60.213 20.8149C60.0304 20.8149 59.8745 20.7499 59.7457 20.6201C59.6159 20.49 59.551 20.3321 59.551 20.1461C59.551 19.9666 59.6149 19.8116 59.7424 19.6809C59.8719 19.5472 60.0288 19.4805 60.213 19.4805C60.3947 19.4805 60.5506 19.5472 60.6804 19.6809ZM60.7792 19.5785C60.6226 19.4217 60.4338 19.3432 60.213 19.3432C60.002 19.3432 59.8184 19.4161 59.6619 19.5612C59.4952 19.7165 59.4121 19.9117 59.4121 20.1461C59.4121 20.372 59.489 20.5622 59.6436 20.7168C59.7979 20.8715 59.9877 20.949 60.213 20.949C60.4309 20.949 60.6177 20.8734 60.7736 20.7224C60.9338 20.5661 61.014 20.3742 61.014 20.1461C61.014 19.9248 60.9357 19.7355 60.7792 19.5785ZM60.3118 20.0853C60.2812 20.1068 60.2391 20.1176 60.1847 20.1176H60.0946V19.8597H60.1511C60.2088 19.8597 60.2538 19.8659 60.2858 19.878C60.3337 19.897 60.3575 19.9306 60.3575 19.9793C60.3575 20.0281 60.3422 20.0634 60.3118 20.0853ZM60.0946 20.2778H60.1432L60.1944 20.2814C60.23 20.2834 60.2564 20.2883 60.2737 20.2955C60.3057 20.3079 60.3275 20.3295 60.3389 20.3608C60.3461 20.3798 60.351 20.4161 60.3529 20.4697C60.3552 20.5233 60.3601 20.5645 60.3673 20.5929H60.589L60.5812 20.5678C60.5784 20.5593 60.5764 20.5505 60.5754 20.5416C60.5743 20.5329 60.5738 20.5242 60.5737 20.5155V20.436C60.5737 20.3451 60.5476 20.2788 60.4955 20.2366C60.4671 20.2141 60.4253 20.1971 60.3696 20.1853C60.4302 20.1788 60.4814 20.1588 60.5232 20.1255C60.5649 20.0921 60.5858 20.0379 60.5858 19.963C60.5858 19.8649 60.5463 19.7943 60.4671 19.7505C60.4208 19.7253 60.3624 19.71 60.2923 19.7051C60.2799 19.7041 60.2189 19.7038 60.109 19.7034C59.9994 19.7028 59.9169 19.7028 59.8618 19.7028V20.5929H60.0946V20.2778Z" fill="#7A7A7A"/>
<path fill-rule="evenodd" clip-rule="evenodd" d="M56.438 20.9195C55.6733 20.5194 55.5549 19.3874 55.5722 16.6368L55.5894 12.4205L54.1392 12.4182L54.465 11.6375H55.5894V9.64039L58.2826 8.64204L58.2813 11.5708L59.5157 11.5731L59.1902 12.4378L58.2826 12.4368L58.2777 19.7335C58.3371 20.3217 58.5344 20.6675 58.8155 20.9195H56.438ZM29.9749 2.88879C30.1807 3.4535 30.6461 4.0365 30.3151 4.69075C30.1539 5.35414 29.5275 5.89239 28.8654 5.99988C28.1763 6.06263 27.5143 5.94597 27.0042 5.52473C26.6373 3.60579 27.4158 1.83061 28.928 0.772461L29.9749 2.88879Z" fill="#7A7A7A"/>
</svg>
