<svg width="50" height="11" viewBox="0 0 50 11" fill="none" xmlns="http://www.w3.org/2000/svg">
<path opacity="0.59" d="M10.2063 6.70427H4.19062C3.54745 6.70427 3.02637 6.18435 3.02637 5.54262C3.02637 4.91329 3.53785 4.40295 4.16857 4.40295H12.5127C12.5133 5.67401 11.4802 6.70427 10.2063 6.70427Z" fill="#7A7A7A"/>
<path opacity="0.59" d="M4.07109 1.36633C4.02863 1.36633 3.9873 1.36972 3.94653 1.37424C4.02976 1.36916 4.11299 1.36633 4.19735 1.36633H4.07109Z" fill="#7A7A7A"/>
<path opacity="0.59" d="M12.4137 1.36633L10.7458 3.66765H12.9325C14.2064 3.66765 15.2389 2.63739 15.2389 1.36633H12.4137Z" fill="#7A7A7A"/>
<path opacity="0.59" d="M7.92512 3.63269L9.5675 1.36633H4.19727C5.82043 1.36633 7.2277 2.28663 7.92512 3.63269Z" fill="#7A7A7A"/>
<path d="M7.94356 3.66838C7.93777 3.65625 7.93256 3.64412 7.9262 3.63257L7.90015 3.66838H7.94356Z" fill="#7A7A7A"/>
<path d="M4.11865 3.6676V3.67162C4.1451 3.67047 4.17098 3.6676 4.19801 3.6676H4.11865Z" fill="#7A7A7A"/>
<path d="M9.6124 1.3047L9.56775 1.36616L7.92537 3.63252C7.93158 3.6438 7.93667 3.6562 7.94232 3.66748H7.89993L7.36642 4.40395L5.63248 6.77745C5.28603 7.18177 4.77172 7.43835 4.19695 7.43835C3.15308 7.43835 2.30702 6.59417 2.30702 5.55263C2.30702 4.53759 3.11182 3.71203 4.11895 3.67086V3.66692H4.19695H7.89993L7.92537 3.63195C7.22738 2.2859 5.82068 1.3656 4.19695 1.3656H4.19638C4.11217 1.3656 4.02909 1.36898 3.94601 1.37349C1.74524 1.50263 0 3.32406 0 5.55263C0 7.86523 1.87862 9.73967 4.19638 9.73967C5.54318 9.73967 6.74021 9.1064 7.50827 8.12237L7.66143 7.91147L10.212 4.40338L10.7456 3.66692L12.4134 1.3656L12.8322 0.78759C11.8007 0.0432288 10.3584 0.274996 9.6124 1.3047Z" fill="#7A7A7A"/>
<path d="M37.9618 7.73407C37.9618 7.77918 37.9618 7.8085 37.9618 7.83839C37.9618 8.55738 37.9618 9.27693 37.9618 9.99591C37.9618 10.0929 37.9612 10.0952 37.8663 10.0895C37.4469 10.0625 37.0784 9.91415 36.767 9.62937C36.4426 9.33275 36.2583 8.96396 36.2007 8.53087C36.1888 8.43952 36.1849 8.34648 36.1843 8.25399C36.177 7.41941 36.1719 6.58426 36.1651 5.74967C36.1634 5.51395 36.1572 5.27824 36.1549 5.04252C36.1487 4.3867 36.3522 3.80474 36.7585 3.28764C37.3033 2.59346 38.0188 2.1835 38.8796 2.03575C39.7223 1.89139 40.5259 2.02673 41.2595 2.4773C41.8807 2.8585 42.3424 3.38181 42.5803 4.07767C42.651 4.2835 42.6945 4.50399 42.7115 4.72053C42.781 5.62279 42.5204 6.42185 41.8778 7.06865C41.4602 7.4899 40.9628 7.79666 40.3767 7.94272C39.6516 8.12373 38.935 8.10343 38.228 7.85813C38.1415 7.82824 38.0612 7.78087 37.9618 7.73407ZM39.3939 6.46132C39.49 6.45512 39.5572 6.45343 39.6239 6.4461C40.0303 6.40098 40.3519 6.20249 40.613 5.89741C40.8198 5.65549 40.9419 5.37467 40.9498 5.05775C40.9617 4.58688 40.782 4.19835 40.4039 3.90794C40.0636 3.64685 39.6804 3.54309 39.2554 3.59835C38.9423 3.63895 38.6795 3.77936 38.4416 3.98632C37.8979 4.45888 37.7696 5.18858 38.1562 5.76207C38.4631 6.21659 38.8892 6.42749 39.3939 6.46132Z" fill="#7A7A7A"/>
<path d="M22.9326 1.26282C22.8269 1.37278 22.7269 1.48218 22.6212 1.58594C22.3256 1.87635 22.026 2.16282 21.731 2.4538C21.683 2.50116 21.6547 2.49834 21.6078 2.4538C21.2552 2.11996 20.8369 1.91639 20.3526 1.86902C19.9027 1.82447 19.4749 1.9147 19.0809 2.1397C18.5226 2.45887 18.1659 2.93312 18.0201 3.5585C17.911 4.02598 17.9602 4.48105 18.1569 4.91978C18.3027 5.24459 18.5146 5.51865 18.795 5.73801C19.1872 6.04534 19.6331 6.20493 20.1333 6.20662C20.6357 6.20831 21.0935 6.07241 21.4897 5.75436C21.5507 5.7053 21.6078 5.6506 21.6711 5.59478C21.6898 5.61057 21.7079 5.6241 21.7237 5.63989C22.104 6.01884 22.4838 6.39891 22.8653 6.7773C22.9049 6.81677 22.91 6.83989 22.8659 6.88162C22.4957 7.22899 22.0797 7.50587 21.6078 7.69647C21.2269 7.85042 20.8318 7.94064 20.4215 7.97109C19.8078 8.01677 19.2155 7.92767 18.6435 7.70267C18.1252 7.4991 17.6708 7.19797 17.282 6.79872C16.6473 6.14741 16.2783 5.37034 16.1799 4.46696C16.0923 3.66508 16.2359 2.90436 16.61 2.19101C16.9763 1.49233 17.5086 0.949846 18.2027 0.570898C18.8634 0.209995 19.5738 0.04477 20.3238 0.0904467C21.2975 0.149657 22.1509 0.502665 22.8574 1.185C22.8806 1.20755 22.9043 1.22955 22.9275 1.25267C22.9303 1.25549 22.9314 1.26056 22.9326 1.26282Z" fill="#7A7A7A"/>
<path d="M25.3168 2.49199C25.4377 2.40402 25.5383 2.31774 25.6514 2.2512C25.9679 2.06342 26.3132 1.96474 26.6822 1.95741C27.0643 1.94951 27.435 2.00026 27.7843 2.16774C28.1601 2.3482 28.4213 2.63579 28.597 3.00853C28.7592 3.35365 28.8214 3.72188 28.8502 4.09688C28.8638 4.27169 28.8649 4.4482 28.8649 4.62357C28.866 5.67809 28.8655 6.7326 28.8655 7.78711C28.8655 7.88692 28.8649 7.88974 28.7654 7.88241C28.3534 7.85309 27.9929 7.7014 27.6865 7.42395C27.3599 7.12846 27.1638 6.76249 27.1061 6.32545C27.0948 6.24087 27.0965 6.15459 27.0965 6.06944C27.0965 5.54444 27.1044 5.01944 27.0954 4.49444C27.0886 4.11211 26.9377 3.79745 26.5743 3.62884C26.3126 3.5076 26.0442 3.55271 25.7847 3.6559C25.4835 3.77545 25.358 4.02639 25.3077 4.32245C25.2857 4.45384 25.2817 4.58918 25.2817 4.72339C25.2795 5.73617 25.2806 6.74952 25.2806 7.7623C25.2806 7.89031 25.2806 7.89031 25.1546 7.88128C24.2978 7.82207 23.6303 7.18993 23.5263 6.33786C23.5156 6.24876 23.5111 6.15797 23.5111 6.06831C23.5105 4.08166 23.5105 2.095 23.5105 0.108908C23.5105 -0.000491046 23.5105 -0.0033108 23.6218 0.00120048C24.2328 0.0243208 24.6991 0.302892 25.0342 0.806464C25.2394 1.11549 25.3151 1.46229 25.3179 1.82771C25.319 2.02169 25.3179 2.21624 25.3179 2.41023C25.3168 2.43447 25.3168 2.45872 25.3168 2.49199Z" fill="#7A7A7A"/>
<path d="M35.5585 6.35315C35.5585 6.88266 35.5585 7.41217 35.5585 7.94168C35.5585 8.03868 35.5579 8.04206 35.4624 8.03642C35.1182 8.01668 34.8125 7.89714 34.548 7.67721C34.4824 7.62251 34.4203 7.56274 34.362 7.50014C34.3287 7.46405 34.3055 7.46123 34.2631 7.48661C34.1179 7.57289 33.9738 7.66255 33.8223 7.73586C33.2741 8.00202 32.6942 8.10409 32.0918 8.00935C30.9467 7.82946 30.1459 7.19507 29.6841 6.1383C29.4976 5.71142 29.4338 5.2586 29.466 4.79506C29.5135 4.10484 29.7706 3.49863 30.229 2.9804C30.7088 2.43848 31.3118 2.11141 32.0251 1.99187C32.4964 1.91292 32.9655 1.93886 33.4188 2.09337C34.5632 2.48359 35.2635 3.27363 35.5093 4.45559C35.5483 4.64394 35.5534 4.8413 35.5568 5.03473C35.5636 5.47458 35.5585 5.91386 35.5585 6.35315ZM32.51 6.45691C33.3142 6.45691 33.9427 5.81631 33.9421 4.99807C33.9416 4.21254 33.282 3.56856 32.4789 3.56912C31.7074 3.56969 31.0485 4.24187 31.0479 5.02909C31.0473 5.81405 31.7058 6.45691 32.51 6.45691Z" fill="#7A7A7A"/>
<path d="M49.3276 6.38585C49.3276 6.90409 49.3276 7.42176 49.3276 7.93999C49.3276 8.03924 49.327 8.04319 49.2264 8.03642C48.8857 8.01386 48.5805 7.89995 48.3182 7.6789C48.2527 7.62364 48.1894 7.56555 48.1317 7.50296C48.0933 7.46123 48.0656 7.46292 48.0209 7.49225C47.7401 7.67947 47.4405 7.8289 47.1133 7.91969C46.2621 8.15597 45.4517 8.05728 44.6994 7.59713C43.8551 7.08059 43.3611 6.31988 43.2498 5.33811C43.1373 4.34732 43.4578 3.49299 44.1721 2.79769C44.6785 2.30484 45.298 2.0257 46.0027 1.96536C46.7889 1.89826 47.5061 2.10126 48.1334 2.58623C48.8077 3.10728 49.1954 3.79581 49.3061 4.6383C49.3242 4.77533 49.3259 4.91518 49.3265 5.05333C49.3293 5.4977 49.3276 5.94149 49.3276 6.38585ZM46.2723 6.45691C47.0641 6.46255 47.7276 5.79037 47.7384 5.0195C47.7497 4.21931 47.1105 3.57363 46.3203 3.56912C45.4969 3.56405 44.8481 4.19055 44.8458 4.993C44.8436 5.81179 45.4686 6.45352 46.2723 6.45691Z" fill="#7A7A7A"/>
</svg>
