<svg width="62" height="30" viewBox="0 0 62 30" fill="none" xmlns="http://www.w3.org/2000/svg">
<path d="M30.082 0C30.1884 0 30.306 0 30.4125 0C30.5196 0.0321037 30.6372 0.0746902 30.7541 0.106794C30.9469 0.235208 31.0853 0.417348 31.1918 0.610625C31.3414 0.706936 31.5335 0.771143 31.6086 0.942144C31.7046 1.16687 31.6406 1.4237 31.619 1.65956C31.5015 1.58422 31.395 1.50953 31.2774 1.43484C31.1069 1.43484 30.9253 1.4237 30.7541 1.4558C30.4452 1.55277 30.2636 1.8417 30.1035 2.09853C30.3596 2.09853 30.6157 2.10901 30.8717 2.12015C31.7366 2.43005 32.1632 3.32961 32.3128 4.17544C32.5368 4.06865 32.7504 3.91861 32.9216 3.73647C33.0816 3.36171 33.0712 2.96598 33.0281 2.5696C32.8896 2.33439 32.7295 2.10901 32.5368 1.91639C32.8896 1.52001 33.3057 1.15639 33.8289 1.01683C34.181 0.899558 34.5547 0.952627 34.9179 0.952627C36.2838 1.2527 37.1702 2.49491 37.7039 3.70437C38.152 4.65765 38.2481 5.72821 38.1736 6.76666C37.9169 6.68084 37.6719 6.5629 37.4792 6.37028C37.3838 7.56926 37.7568 8.71516 38.12 9.83944C38.2376 10.2142 38.4186 10.5673 38.6217 10.91C38.1096 10.8563 37.6504 10.5778 37.2022 10.3315C36.4118 9.83944 35.6221 9.30416 35.0132 8.57626C34.5867 8.04033 34.213 7.46246 33.9145 6.84135C33.8818 7.32291 33.8714 7.82609 34.0099 8.29781C33.4017 8.19036 32.804 7.93353 32.4408 7.40874C32.5264 8.59723 32.4519 9.81782 31.9822 10.9316C31.7575 11.4348 31.363 11.8947 31.459 12.4942C31.9927 12.6338 32.772 12.8369 32.708 13.5438C31.8326 13.2116 30.8933 13.2654 29.9748 13.1691C30.1244 12.9017 30.338 12.6659 30.5941 12.4942C30.5837 12.2164 30.6052 11.9059 30.4021 11.6811C30.0284 11.1989 29.7828 10.6316 29.6548 10.0321C29.5267 10.589 29.2707 11.1347 28.833 11.52C28.5554 11.7663 28.3313 12.0769 28.3097 12.4733C28.833 12.5263 29.4307 12.6443 29.7083 13.1474C29.6763 13.2012 29.6018 13.3191 29.5698 13.3722C28.6729 13.0832 27.7231 13.2758 26.8047 13.3296C26.9647 12.9974 27.1894 12.6875 27.5304 12.5375C27.5304 12.43 27.5304 12.3127 27.5304 12.2053C27.3495 11.7021 27.1679 11.1885 27.2424 10.642C27.0719 11.1242 26.7087 11.499 26.2926 11.7775C26.1854 11.8738 26.0254 11.8626 25.8973 11.8738C25.022 11.9059 24.1147 11.8626 23.2929 11.5311C23.0257 11.4132 22.7161 11.3385 22.5561 11.0705C24.2218 10.6637 25.8869 9.84993 26.8903 8.41509C27.1783 8.01936 27.3704 7.56926 27.5304 7.09818C27.6056 6.78829 27.6696 6.47708 27.6696 6.15604C27.6265 6.16718 27.5304 6.18814 27.488 6.18814C27.1894 7.37663 26.1645 8.17988 25.0971 8.66144C25.1932 8.28667 25.2461 7.89095 25.2036 7.50505C23.8802 9.0683 22.1079 10.2142 20.1868 10.91C20.5069 10.2889 20.8485 9.67892 21.1046 9.02571C21.4567 8.1694 21.6598 7.26984 21.7558 6.3598C21.5422 6.54194 21.3071 6.69132 21.0405 6.76666C21.019 6.29559 21.0301 5.82452 21.051 5.36393C21.083 5.46024 21.115 5.56704 21.147 5.664C21.147 5.56704 21.1366 5.47073 21.1046 5.37507C21.147 4.26127 21.6598 3.21168 22.3215 2.33439C22.7808 1.79846 23.3034 1.27432 23.9866 1.01683C24.4348 0.845833 24.926 0.899558 25.3637 1.06008C25.7373 1.2527 26.0894 1.52001 26.2814 1.90591C25.9614 2.18436 25.7053 2.58009 25.6948 3.01905C25.7269 3.51175 26.0045 4.04703 26.5166 4.16496C26.8792 4.29337 27.2639 4.20754 27.616 4.11123C27.584 3.83278 27.4135 3.57595 27.3919 3.28702C27.2848 2.94436 27.4024 2.60171 27.456 2.26953C27.5735 1.95963 27.7231 1.67005 27.9041 1.3916C27.5951 1.23108 27.3815 0.952627 27.1999 0.674177C27.584 0.802591 28.0432 0.931661 28.4058 0.674177C28.961 0.35314 29.5058 0.106794 30.082 0Z" fill="#7A7A7A"/>
<path d="M28.8545 11.531C29.281 11.1347 29.5377 10.5994 29.6762 10.0425C29.8043 10.642 30.0499 11.21 30.4235 11.6916C30.626 11.9163 30.6051 12.2164 30.6156 12.5053C30.3595 12.6874 30.1564 12.9122 29.9963 13.1795C29.9107 13.169 29.8258 13.169 29.7403 13.169C29.4522 12.6658 28.8649 12.5479 28.3417 12.4942C28.3528 12.0984 28.5768 11.7879 28.8545 11.531Z" fill="#7A7A7A"/>
<path d="M29.7296 13.1586C29.8145 13.1586 29.9001 13.1691 29.9856 13.1691C30.9034 13.2654 31.8428 13.2116 32.7181 13.5438C32.7397 13.5012 32.7717 13.4043 32.7821 13.3617C33.8815 13.5654 34.992 13.7469 36.0699 14.0575C39.2302 14.957 42.2292 16.5524 44.5992 18.8652C44.7063 18.972 44.7703 19.1108 44.8343 19.2399C44.0126 19.143 43.2862 18.7472 42.518 18.4688C39.5928 17.2587 36.5186 16.3486 33.3694 16.006C30.0817 15.5991 26.7299 15.7812 23.4742 16.4128C22.1292 16.6592 20.8162 17.0451 19.5136 17.4408C18.4038 17.7835 17.3357 18.2224 16.2475 18.6398C15.6171 18.8756 14.9985 19.1757 14.3152 19.2399C14.3256 19.1967 14.3361 19.1004 14.3361 19.0578C16.6851 16.7129 19.6528 15.075 22.8229 14.1328C24.1359 13.779 25.4705 13.458 26.8364 13.3401C27.7548 13.2758 28.7046 13.0937 29.6015 13.3833C29.6335 13.3296 29.6976 13.2116 29.7296 13.1586Z" fill="#7A7A7A"/>
<mask id="mask0_138_347" style="mask-type:luminance" maskUnits="userSpaceOnUse" x="27" y="21" width="9" height="9">
<path d="M27.7604 21.1327H35.2856V29.9081H27.7604V21.1327Z" fill="white"/>
</mask>
<g mask="url(#mask0_138_347)">
<path d="M30.0822 21.6273C31.5337 20.9204 33.2419 21.0167 34.7045 21.6273C34.8534 21.7131 35.0134 21.7878 35.1637 21.8625C35.1846 22.559 35.1741 23.2436 35.1637 23.9394C34.4268 23.2653 33.4339 22.9331 32.441 22.88C31.7048 22.8584 30.9471 23.1578 30.4343 23.7042C30.1782 23.9827 30.0182 24.3253 29.8686 24.668C29.7405 25.4706 29.7301 26.3701 30.2318 27.0659C30.6159 27.6759 31.3096 27.9976 32.0033 28.1155C32.4521 28.1476 32.9002 28.0618 33.3379 27.9334C33.3274 27.4728 33.3804 27.0017 33.2203 26.5628C33.0498 26.0059 32.7186 25.5243 32.377 25.0532C33.317 25.0211 34.2452 25.1384 35.1846 25.107C35.1846 26.4343 35.1846 27.7617 35.1846 29.0898C35.0566 29.154 34.9285 29.2182 34.8005 29.2824C33.5404 29.8498 32.0889 30.1282 30.7544 29.6997C29.6765 29.3787 28.7372 28.6076 28.2355 27.5907C27.7554 26.6912 27.6802 25.6422 27.8403 24.6568C28.0643 23.3616 28.9077 22.2163 30.0822 21.6273Z" fill="#7A7A7A"/>
</g>
<path d="M18.4142 21.3916C18.5102 21.3916 18.7023 21.3916 18.7878 21.4021C20.549 22.8802 22.3212 24.3471 24.0823 25.8239C24.0928 24.3471 24.0823 22.8802 24.0823 21.4021C24.7551 21.4021 25.4169 21.4021 26.089 21.4021C26.0786 24.1964 26.1106 27.0019 26.1001 29.7962C25.9395 29.7641 25.7474 29.8067 25.6194 29.6678C23.8687 28.212 22.1291 26.7339 20.3785 25.2781C20.3994 26.7772 20.3785 28.2762 20.3889 29.7641C19.7272 29.7746 19.0655 29.7641 18.4142 29.7746C18.4142 26.9803 18.4142 24.1859 18.4142 21.3916Z" fill="#7A7A7A"/>
<path d="M46.2433 21.4131C48.6452 21.4131 51.0472 21.4131 53.4485 21.4131C53.4485 21.991 53.4485 22.559 53.4485 23.1369C52.5836 23.1369 51.7194 23.1369 50.844 23.1369C50.8336 25.3533 50.844 27.5691 50.844 29.7856C50.1927 29.7856 49.531 29.7856 48.8693 29.7856C48.8582 27.5691 48.8797 25.3533 48.8582 23.1473C47.9835 23.1473 47.1075 23.1473 46.2433 23.1473C46.2433 22.559 46.2433 21.991 46.2433 21.4131Z" fill="#7A7A7A"/>
<path d="M55.0177 21.4132C57.0244 21.4132 59.0318 21.402 61.0386 21.4132C60.9001 22.1194 60.5264 22.9332 59.7576 23.0937C58.8287 23.2011 57.8789 23.0622 56.95 23.169C56.9604 23.6506 56.9604 24.1321 56.95 24.6143C57.9853 24.6248 59.0103 24.6143 60.0457 24.6143C60.0457 25.1922 60.0457 25.7602 60.0457 26.3381C59.0103 26.3597 57.9749 26.2844 56.95 26.3807C56.9604 26.916 56.95 27.4624 56.9604 27.9977C58.1565 27.9977 59.3624 27.9977 60.5584 27.9977C60.5584 28.586 60.5584 29.175 60.5584 29.7745C58.7117 29.764 56.8755 29.7745 55.0288 29.764C55.0177 26.9913 55.0177 24.1963 55.0177 21.4132Z" fill="#7A7A7A"/>
<mask id="mask1_138_347" style="mask-type:luminance" maskUnits="userSpaceOnUse" x="36" y="20" width="10" height="10">
<path d="M36.7906 20.9651H45.4865V29.9082H36.7906V20.9651Z" fill="white"/>
</mask>
<g mask="url(#mask1_138_347)">
<path d="M39.9559 23.2975C38.5358 24.2934 38.5469 26.7129 39.9768 27.6872C40.6921 28.1904 41.7275 28.1262 42.3892 27.5693C43.4357 26.6808 43.5637 24.9997 42.8164 23.8754C42.4428 23.2864 41.7706 22.9444 41.0769 22.9123C40.6921 22.9765 40.276 23.0407 39.9559 23.2975ZM40.2649 21.1669C40.9697 21.0706 41.717 21.0489 42.3892 21.2953C43.6382 21.6805 44.6742 22.698 45.0799 23.9396C45.464 25.1281 45.4 26.4771 44.8343 27.6014C44.3326 28.5219 43.4997 29.2825 42.4963 29.6252C41.0233 30.1814 39.2511 29.7746 38.1517 28.651C36.4755 27.0556 36.4226 24.1008 38.0132 22.4301C38.6109 21.7768 39.4111 21.349 40.2649 21.1669Z" fill="#7A7A7A"/>
</g>
<path d="M3.05322 23.1689C3.05322 24.7643 3.05322 26.3485 3.05322 27.9439C3.67183 27.9544 4.31266 27.9976 4.89992 27.7617C5.54009 27.5481 6.08488 27.045 6.30894 26.4022C6.58657 25.5348 6.42587 24.4747 5.71123 23.8647C4.97438 23.2227 3.97102 23.1368 3.05322 23.1689ZM0 21.3705C1.17386 21.3705 2.34838 21.3705 3.51179 21.3705C4.73987 21.3705 6.04177 21.6378 7.02424 22.4194C7.51481 22.8047 7.87801 23.3183 8.12363 23.8752C8.51818 24.9569 8.52929 26.1559 8.12363 27.2265C7.55793 28.5329 6.27693 29.4534 4.87836 29.6676C3.66138 29.8603 2.43395 29.7318 1.21698 29.7744C1.18497 27.7087 1.21698 25.6422 1.19542 23.5758C1.19542 23.3399 1.15296 23.0831 0.949804 22.9331C0.491233 22.5157 0.149591 21.97 0 21.3705Z" fill="#7A7A7A"/>
<path d="M12.4043 25.5131C12.2971 25.749 12.1802 25.9737 12.0731 26.2095C12.7348 26.338 13.3965 26.5201 14.0158 26.7769C13.8342 26.3484 13.6212 25.9416 13.4285 25.5242C13.258 25.1711 13.0876 24.8068 12.906 24.4537C12.7244 24.8068 12.5539 25.1599 12.4043 25.5131ZM8.31567 29.8386C9.74626 27.0338 11.1442 24.2178 12.5539 21.4019C12.7884 21.4019 13.0124 21.4019 13.2476 21.4019C14.0269 23.0726 14.8487 24.7105 15.6495 26.3701C16.2041 27.5264 16.7809 28.6828 17.3355 29.8497C16.4713 29.7101 15.6064 29.4533 14.8696 28.9718C14.379 28.6612 13.8662 28.3507 13.3116 28.1901C12.6603 28.0185 11.9875 27.858 11.3042 27.8907C11.1017 28.3611 10.8457 28.8322 10.44 29.1428C9.82073 29.5929 9.06297 29.796 8.31567 29.8386Z" fill="#7A7A7A"/>
</svg>
