<svg width="62" height="18" viewBox="0 0 62 18" fill="none" xmlns="http://www.w3.org/2000/svg">
<path fill-rule="evenodd" clip-rule="evenodd" d="M8.73874 10.1182C8.43959 10.2796 8.40166 10.3039 8.2329 10.3039C8.15909 10.3039 8.02562 10.2248 7.88207 10.1256C7.88207 10.1256 7.78715 10.0622 7.51281 9.8828C7.33135 9.7656 7.27249 9.69152 7.11378 9.69152C6.95223 9.69152 6.86754 9.75263 6.17165 10.1256C5.70802 10.3731 5.8251 10.4512 6.06705 10.6105C6.76175 11.0648 6.37175 10.8093 7.33012 11.4438C7.63235 11.6449 7.81134 11.792 7.9764 11.792C8.14103 11.792 8.44206 11.6437 9.41393 11.1249C12.0684 9.70723 14.371 8.47875 16.3809 7.40574L16.6411 5.896L8.73874 10.1182Z" fill="#7A7A7A"/>
<path fill-rule="evenodd" clip-rule="evenodd" d="M7.62105 16.3738C7.15669 16.6182 7.12685 16.5693 6.79214 16.3502C5.8162 15.7158 2.52171 13.5871 1.80365 13.1121C1.62137 12.991 1.3963 12.8909 1.28416 12.8954C1.13507 12.8998 1.08476 12.9478 0.703702 13.1506C-0.130045 13.5909 -0.0726005 13.5934 0.120751 13.7162C0.306789 13.8316 5.27011 17.0598 6.46892 17.8375C6.62218 17.9384 6.74641 17.9986 6.89612 17.9986C7.05104 17.9986 7.28094 17.9384 7.48095 17.8314C10.5578 16.2059 13.1856 14.8202 15.4523 13.6229L15.7171 12.1028C13.4207 13.3145 10.7532 14.7235 7.6212 16.3743L7.62105 16.3738Z" fill="#7A7A7A"/>
<path fill-rule="evenodd" clip-rule="evenodd" d="M7.87778 13.2381C7.60979 13.3785 7.55351 13.3984 7.38167 13.3984C7.28299 13.3984 7.10061 13.2762 6.87037 13.1287C6.06029 12.6147 4.71935 11.7933 4.62468 11.7299C4.62468 11.7299 4.53885 11.6733 4.30673 11.5232C4.12117 11.4038 3.98856 11.3001 3.82474 11.3001C3.65669 11.3001 3.65438 11.3062 3.30459 11.4882C2.42684 11.9419 2.37309 11.9771 2.54111 12.0844C3.59428 12.7599 4.63586 13.4284 6.59612 14.6714C6.94948 14.8953 6.95876 14.8953 7.1089 14.8953C7.26999 14.8953 7.34041 14.8935 7.60162 14.7569C10.7561 13.1147 13.4431 11.7139 15.7573 10.5105L16.0253 8.99951C13.714 10.2014 11.0281 11.5992 7.87793 13.2384L7.87778 13.2381Z" fill="#7A7A7A"/>
<path fill-rule="evenodd" clip-rule="evenodd" d="M8.71003 7.38855C8.78279 7.38855 8.9166 7.46827 9.06169 7.56788C9.06169 7.56788 9.15624 7.63125 9.43209 7.80952C9.61376 7.92803 9.67401 8.00186 9.83063 8.00186C9.99319 8.00186 10.0787 7.94104 10.7761 7.56788C11.2408 7.31851 11.1241 7.2409 10.8813 7.08233C10.1848 6.62654 10.5749 6.8841 9.61564 6.24566C9.31101 6.04597 9.13344 5.896 8.96714 5.896C8.80211 5.896 8.50038 6.04597 7.52613 6.56488C4.87632 7.97899 2.5774 9.2075 0.569924 10.2797L0.307861 11.792L8.20247 7.57384C8.50359 7.41297 8.5421 7.38855 8.71003 7.38855Z" fill="#7A7A7A"/>
<path fill-rule="evenodd" clip-rule="evenodd" d="M10.1451 1.65063C11.1212 2.28799 14.4235 4.42249 15.1431 4.89715C15.3257 5.01966 15.5505 5.11934 15.6626 5.11679C15.8122 5.11301 15.8622 5.06274 16.2454 4.86063C17.0793 4.41775 17.0224 4.4165 16.8281 4.29399C16.6424 4.17762 11.6698 0.940414 10.4694 0.15966C10.3161 0.0606107 10.1919 0 10.0404 0C9.88483 0 9.65622 0.0606107 9.45519 0.165783C6.38453 1.7892 3.76129 3.17525 1.49802 4.37118L1.23218 5.89597C3.52626 4.68543 6.18954 3.27784 9.3154 1.62821C9.77868 1.38216 9.80871 1.43226 10.1451 1.65063Z" fill="#7A7A7A"/>
<path fill-rule="evenodd" clip-rule="evenodd" d="M9.24969 4.2921C9.34748 4.2921 9.53063 4.4152 9.76152 4.56136C10.5735 5.07782 11.9169 5.90047 12.0109 5.96455C12.0109 5.96455 12.0969 6.0223 12.3322 6.17246C12.516 6.29174 12.6478 6.39697 12.8117 6.39697C12.98 6.39697 12.9838 6.389 13.3353 6.2069C14.2122 5.75158 14.2683 5.71713 14.1008 5.61001C13.0432 4.93207 11.9999 4.26377 10.035 3.01602C9.6829 2.79297 9.67297 2.79297 9.52255 2.79297C9.36098 2.79297 9.29043 2.79508 9.0287 2.93159C5.88096 4.57018 3.19734 5.96936 0.885078 7.17484L0.615967 8.68912C2.92601 7.48546 5.60877 6.09029 8.75157 4.45362C9.02068 4.31271 9.07585 4.2921 9.24969 4.2921Z" fill="#7A7A7A"/>
<path fill-rule="evenodd" clip-rule="evenodd" d="M21.8042 12.8723H19.636L20.1173 9.93005H18.623L17.5657 16.4451L19.0612 16.4468L19.4213 14.2403H21.5907L21.2286 16.4439H22.6756L23.7292 9.93005H22.2849L21.8042 12.8723Z" fill="#7A7A7A"/>
<path fill-rule="evenodd" clip-rule="evenodd" d="M24.1659 11.719L25.4314 12.4957L23.8933 13.3326L23.4216 16.1363H24.9428L25.8871 10.5507H24.3638L24.1659 11.719Z" fill="#7A7A7A"/>
<path fill-rule="evenodd" clip-rule="evenodd" d="M29.4572 12.163C29.1962 11.8647 28.715 11.6224 28.1315 11.6224C27.6493 11.6224 27.3948 11.7716 27.3817 11.7716L27.2559 12.5791C27.2583 12.5791 27.51 12.5128 27.715 12.5357C28.6419 12.64 28.5295 13.6732 28.4782 13.9977C28.379 14.6252 28.0356 15.2791 27.3954 15.5136C26.9783 15.6688 26.7351 15.594 26.7351 15.594L27.5232 10.552L26.1698 10.5505L25.2705 16.3075C25.2735 16.3025 26.29 16.4501 27.0356 16.4464C27.7729 16.4432 28.4479 16.2327 28.9757 15.7613C29.4463 15.3391 29.7313 14.7091 29.8528 13.9179C29.8821 13.7194 29.8969 13.5306 29.8924 13.3541C29.8769 12.848 29.7362 12.4816 29.4572 12.163Z" fill="#7A7A7A"/>
<path fill-rule="evenodd" clip-rule="evenodd" d="M31.1199 12.1733C30.8669 12.4043 30.7794 12.9903 30.7039 13.4566L30.2021 16.4467H31.6247L32.1514 13.4024C32.2127 13.0232 32.4109 12.8409 32.7135 12.8409H33.2078L33.5921 11.792C32.0716 11.792 31.4546 11.867 31.1199 12.1733Z" fill="#7A7A7A"/>
<path fill-rule="evenodd" clip-rule="evenodd" d="M39.9275 12.698L40.0631 11.7503H39.3906L39.5589 10.5505L38.2972 10.9826L38.1869 11.7503H37.7317L37.5977 12.698H38.0513L37.7961 14.4704C37.7573 14.7207 37.7225 14.9762 37.692 15.2312C37.6214 15.7735 37.8473 16.0754 37.9465 16.1797C38.12 16.3689 38.3364 16.4465 38.6926 16.4465L38.7302 16.4451C39.1074 16.4401 39.3432 16.3292 39.411 16.2822L39.5398 15.398C39.4729 15.4194 39.3546 15.4452 39.2119 15.4452C39.0221 15.4452 38.917 15.3297 38.9117 15.1105C38.9117 15.0664 38.9188 15.0107 38.9274 14.9463L39.2569 12.698H39.9275Z" fill="#7A7A7A"/>
<path fill-rule="evenodd" clip-rule="evenodd" d="M45.9737 13.4581L45.9761 13.4454C46.0214 13.4454 46.3222 13.3254 46.6443 13.0259C46.9675 12.7236 47.0862 12.5306 47.1432 12.0874C47.1987 11.6215 46.9648 11.0839 46.5626 10.8407C46.0563 10.5396 45.7068 10.5507 45.0581 10.5507L42.5464 10.5521L41.604 16.1362L43.0771 16.135L43.8765 11.4015H44.8001C45.3558 11.4015 45.6741 11.6747 45.6519 12.1333C45.6316 12.5126 45.4368 12.6895 45.2467 12.8109C45.0417 12.9458 44.8279 13.0178 44.2864 13.0184L43.6522 13.019L43.5159 13.8242H44.0762C45.0852 13.8513 45.2775 14.3046 45.1869 14.6444C45.088 15.0158 44.7511 15.2607 43.8112 15.2919H43.2685L43.1261 16.1349H44.3508C44.7943 16.1349 45.5071 16.1256 45.904 15.9399C46.6495 15.5902 46.819 15.0751 46.868 14.6869C46.8973 14.4576 46.8742 13.9666 46.5561 13.7137C46.2492 13.4697 45.9737 13.4581 45.9737 13.4581Z" fill="#7A7A7A"/>
<path fill-rule="evenodd" clip-rule="evenodd" d="M54.0423 12.1024C53.307 12.1024 52.6564 12.2208 52.1042 12.4512L51.4666 16.4469L52.7936 16.4457L53.3468 13.03L53.3911 13.0185C53.5428 12.9783 53.7104 12.9562 53.8774 12.9562C54.2334 12.9562 54.4189 13.1017 54.4288 13.3916C54.4288 13.4388 54.4248 13.4871 54.4137 13.5392L53.9428 16.4424L55.2849 16.4416L55.7598 13.5323C55.7764 13.4232 55.7829 13.317 55.7807 13.2163C55.761 12.4663 55.1912 12.1024 54.0423 12.1024Z" fill="#7A7A7A"/>
<path fill-rule="evenodd" clip-rule="evenodd" d="M57.2809 10.5519L56.3955 16.1363H57.7262L58.0763 13.9917L58.9904 16.1363L60.551 16.1361L59.3771 13.7281L61.0182 11.7267H59.6006L58.1296 13.6305L58.6135 10.5507L57.2809 10.5519Z" fill="#7A7A7A"/>
<path fill-rule="evenodd" clip-rule="evenodd" d="M35.2214 15.4992C34.6759 15.4443 34.2096 14.9755 34.2734 14.3071C34.3708 13.2642 34.7878 12.9531 34.9323 12.8093C35.0975 12.6453 35.3018 12.5625 35.5428 12.5625C35.9062 12.5625 36.0818 12.7909 36.0643 13.2398C36.0609 13.3549 36.0427 13.4797 36.0174 13.6135L36.0029 13.6737H34.5653C34.5653 13.6737 34.4956 13.8607 34.45 14.0728C34.4069 14.2722 34.405 14.3743 34.405 14.3743L37.1466 14.3849C37.2283 14.0683 37.2769 13.7672 37.2862 13.4874C37.3071 12.9612 37.1953 12.5487 36.9574 12.2583C36.7031 11.9482 36.3145 11.7919 35.8057 11.7919C35.1333 11.7919 34.5409 11.9943 34.0466 12.3962C33.5498 12.7978 33.2185 13.3412 33.0574 14.0124C33.0096 14.2112 32.9828 14.4035 32.9754 14.5796C32.9566 15.0906 33.1486 15.6029 33.4808 15.9156C33.8183 16.2327 34.2358 16.4466 34.8473 16.4466C35.4599 16.4466 36.2208 16.2721 36.9543 15.7277L36.4251 15.1397C35.8565 15.498 35.5086 15.5293 35.2214 15.4992Z" fill="#7A7A7A"/>
<path fill-rule="evenodd" clip-rule="evenodd" d="M49.6135 11.7919C49.24 11.7913 48.7925 11.8516 48.3068 11.9684L48.1684 12.8054C48.6547 12.6367 49.0014 12.6051 49.2267 12.6051C49.7069 12.6055 49.9032 12.7271 49.9066 12.9968C49.9066 13.0399 49.8329 13.485 49.8261 13.5267C49.7408 14.0467 49.5179 15.4085 49.5179 15.4085C49.5081 15.4665 49.4351 15.4679 49.0431 15.4673C48.7743 15.4665 48.5725 15.3929 48.4612 15.2539C48.3752 15.1468 48.3453 15.0018 48.3709 14.8352C48.4159 14.553 48.5626 14.3413 48.8073 14.2025C49.0406 14.0694 49.3491 14.0504 49.6921 14.0451L49.8181 13.3009C49.7636 13.2977 49.6104 13.294 49.5592 13.294C48.9833 13.294 48.4415 13.4294 48.023 13.6819C47.8729 13.7728 47.7382 13.8782 47.6242 13.998C47.3062 14.3324 47.1391 14.7616 47.1521 15.2098C47.1641 15.5899 47.3773 15.8149 47.6473 15.9473C47.9743 16.1073 48.3829 16.1358 48.623 16.1358C48.7395 16.1358 48.8316 16.1369 48.8363 16.1358H50.6178L50.8665 14.6829C50.8665 14.6829 51.1115 13.1146 51.1396 12.9406C51.2699 12.1195 50.6961 11.7943 49.6135 11.7919Z" fill="#7A7A7A"/>
<path fill-rule="evenodd" clip-rule="evenodd" d="M29.75 1.86194C29.1007 1.86194 28.5604 2.06107 28.1477 2.45498C27.7361 2.84645 27.4819 3.41476 27.3682 4.14366L27.2119 5.14436H25.854L25.2708 6.79968H25.3868C25.6486 6.79968 25.8851 6.73584 26.0874 6.60548C26.2705 6.48741 26.4108 6.32964 26.5066 6.13666H27.0423L26.7275 8.06825H28.1034L28.742 4.12693C28.8013 3.75039 28.9178 3.47781 29.0464 3.30857C29.1651 3.15508 29.3121 3.07834 29.5258 3.07611C29.7439 3.07304 29.8692 3.15037 29.9406 3.30487C30.0198 3.47105 30.0303 3.74506 29.9705 4.11954L29.3139 8.06831H30.7459L31.3841 4.16113C31.4984 3.42912 31.4177 2.85777 31.1425 2.46324C30.8654 2.06398 30.3967 1.86194 29.75 1.86194Z" fill="#7A7A7A"/>
<path fill-rule="evenodd" clip-rule="evenodd" d="M47.6565 1.862C47.0207 1.862 46.4925 2.06113 46.0851 2.45504C45.6832 2.84651 45.4222 3.41482 45.3088 4.14372L44.9941 6.11993H46.392L46.7027 4.12755C46.7619 3.74326 46.8571 3.46515 46.9828 3.30081C47.0996 3.14981 47.2491 3.07614 47.4389 3.07614C47.6414 3.07614 47.7727 3.15164 47.8442 3.3049C47.9218 3.47108 47.9252 3.74549 47.8679 4.12041L47.2432 8.06825H48.639L49.2587 4.16106C49.3718 3.42906 49.2923 2.85771 49.0239 2.46317C48.7524 2.06392 48.2929 1.862 47.6565 1.862Z" fill="#7A7A7A"/>
<path fill-rule="evenodd" clip-rule="evenodd" d="M56.9636 2.66722C56.4874 2.64919 56.0637 2.76394 55.7062 2.9578C55.6526 2.83954 55.6221 2.60962 55.6948 2.1588L55.8002 1.55164H54.3151L54.2152 2.12212C54.0725 2.98833 54.2537 3.56108 54.7511 3.90103C54.6072 4.1873 54.4562 4.69674 54.4078 5.15452C54.3977 5.24693 54.3628 5.5242 54.3628 5.5242L54.8525 5.52318C54.4676 5.80882 54.2291 6.23628 54.1345 6.79879L53.9314 8.06745L55.3811 8.06826L55.5872 6.86004C55.6322 6.58936 55.7352 6.3906 55.8375 6.28013C55.9315 6.17747 56.0683 6.12705 56.2581 6.12705H56.2723L56.4437 5.12256H56.2575C56.1629 5.12256 55.8911 5.12501 55.8911 5.12501C55.8911 5.12501 55.937 4.50779 56.1703 4.21721C56.2967 4.06249 56.5192 3.88362 57.0375 3.90637C57.7691 3.93874 57.7654 4.75043 57.7017 5.12786L57.2064 8.06354H58.6589L59.1042 5.17072C59.1042 5.17072 59.7572 2.77049 56.9636 2.66722Z" fill="#7A7A7A"/>
<path fill-rule="evenodd" clip-rule="evenodd" d="M35.9641 6.74351C35.9641 6.74351 34.3138 6.86292 34.0673 6.86108C33.8664 6.85984 33.6423 6.82937 33.5415 6.76476C33.4223 6.68808 33.3708 6.5531 33.3859 6.35595C33.422 5.86904 33.8738 5.32077 34.5906 4.72385C35.0498 4.34654 35.4029 3.91933 35.6387 3.45634C35.8849 2.97454 36.0039 2.53855 36.0483 1.95L36.0554 1.86206H34.6578L34.6507 1.96636C34.6168 2.43425 34.5326 2.81401 34.4035 3.09622C34.2747 3.37475 34.0864 3.62527 33.8396 3.83262C33.2143 4.37354 32.7631 4.84798 32.5021 5.23981C32.2376 5.63776 32.0885 6.05411 32.0558 6.47825C32.0151 7.03592 32.1587 7.44553 32.4814 7.69748C32.74 7.89872 33.1233 8.00035 33.6183 8.00035C33.7292 8.00035 33.8476 7.99647 33.9708 7.98626L34.7592 7.92224C34.8159 8.05763 34.9228 8.16968 35.075 8.25474C35.2211 8.33716 35.3838 8.37868 35.5583 8.37868C35.5885 8.37868 35.6205 8.37744 35.6519 8.3744L35.9684 8.34923L35.8039 7.2793L35.9641 6.74351Z" fill="#7A7A7A"/>
<path fill-rule="evenodd" clip-rule="evenodd" d="M53.0867 4.51504C53.0867 4.51504 53.8683 3.06559 53.0091 2.30513C52.8368 2.15072 52.0044 1.6521 50.8604 1.96034C50.3593 2.09579 50.1202 2.26315 50.1202 2.26315L49.9236 3.41404C50.4105 3.02544 51.7498 2.79773 51.9862 3.39446C52.2374 4.02732 51.1178 5.15982 51.1156 5.15861H52.2389L51.0318 8.068H52.4861L53.9299 4.51489L53.0867 4.51504Z" fill="#7A7A7A"/>
<path fill-rule="evenodd" clip-rule="evenodd" d="M39.607 3.89005L39.8535 2.43787L39.4264 2.436C39.1426 2.436 38.9459 2.37956 38.8449 2.26933C38.7432 2.16113 38.7111 1.97227 38.7533 1.71073L38.7808 1.55164H37.3557L37.3209 1.75939C37.1915 2.55383 37.4685 3.0921 38.2405 3.32304L38.1419 3.8921H36.3995L35.7495 5.7902H36.0777C36.3465 5.7902 36.5905 5.72202 36.8047 5.58921C36.9973 5.47262 37.1514 5.31495 37.2525 5.12259H37.9296L37.4291 8.06826H38.8972L39.3974 5.12259H40.0196C40.056 5.31495 40.1537 5.47262 40.3062 5.58921C40.4764 5.72202 40.7007 5.7902 40.9698 5.7902H41.2967L41.2662 3.8921L39.607 3.89005Z" fill="#7A7A7A"/>
<path fill-rule="evenodd" clip-rule="evenodd" d="M24.9268 6.24966C24.9957 5.81062 24.9647 5.4151 24.8336 5.06925C24.7036 4.72052 24.4782 4.4426 24.1612 4.24372C23.8699 4.05961 23.5092 3.95019 23.0891 3.91776L23.3293 2.37897H22.6743C22.336 2.37897 22.2559 2.32768 22.237 2.30487C22.19 2.24783 22.1795 2.12569 22.2078 1.94056L22.268 1.55384L20.8384 1.55139L20.7789 1.92846C20.6859 2.47505 20.5986 2.98983 20.8159 3.25561C20.912 3.37158 21.0574 3.43091 21.2502 3.43091C21.2502 3.43091 21.7195 3.42762 21.7296 3.42762L21.6555 3.91224C20.9907 3.96887 20.4277 4.19857 19.9787 4.59779C19.5049 5.01997 19.1942 5.58279 19.0897 6.26176L18.7988 8.06801H20.2813L20.5755 6.23324C20.6241 5.91899 20.7185 5.64293 20.9037 5.44979C21.059 5.28455 21.2217 5.19198 21.4637 5.14869L21.0086 8.06801H22.4221L22.889 5.14559C23.1134 5.18521 23.2908 5.28517 23.4034 5.44979C23.5329 5.64048 23.5732 5.90341 23.5218 6.23324L23.2362 8.06801H24.6365L24.9268 6.24966Z" fill="#7A7A7A"/>
</svg>
