<svg width="62" height="25" viewBox="0 0 62 25" fill="none" xmlns="http://www.w3.org/2000/svg">
<path d="M61.0389 3.26877C60.771 4.3454 60.2541 5.36282 60.5782 6.51481C60.5278 6.54808 60.4727 6.57348 60.4148 6.59018C59.1291 6.69784 58.9952 6.53904 59.3059 5.2713C59.4639 4.61994 59.6622 3.97666 59.7934 3.31991C59.9434 2.55819 59.7613 2.04141 59.3595 1.90145C58.9577 1.76149 58.3604 2.06294 57.9989 2.64971C57.9111 2.81203 57.8324 2.97917 57.7632 3.15034L58.2158 3.29569C57.9185 4.37232 57.6212 5.42472 57.2918 6.60094C57.4043 6.53366 57.3721 6.56865 57.34 6.57134C56.0972 6.66016 55.907 6.42868 56.3007 5.25516C56.4829 4.71684 56.7132 4.17852 56.9409 3.60522L56.2445 3.55408C56.5391 3.08305 56.7802 2.69816 57.0346 2.28096L56.1695 2.22713V0.103473C56.4641 0.017506 56.7715 -0.0153005 57.0775 0.00657634C57.1971 0.056867 57.3033 0.13471 57.3876 0.233826C57.4718 0.332943 57.5316 0.45056 57.5623 0.577191C57.6083 1.04859 57.6164 1.52295 57.5864 1.99565C57.9935 1.89606 58.3899 1.76956 58.8185 1.69958C60.0586 1.48425 60.6103 1.79648 61.0415 2.92156L61.0389 3.26877Z" fill="#7A7A7A"/>
<path d="M5.97027 18.9472C6.34525 18.8368 6.72826 18.7426 7.09788 18.6161C11.2682 17.1842 15.3715 17.3242 19.3677 19.2244C21.3936 20.1659 23.1362 21.6283 24.4192 23.4637C24.5533 23.641 24.635 23.8528 24.6549 24.0747C24.4741 23.9589 24.3006 23.8322 24.1352 23.6951C20.7685 20.5137 16.6973 19.7331 12.2699 20.1746C8.99687 20.4922 5.86045 21.4181 2.72939 22.3682C2.33088 22.4992 1.92241 22.5973 1.50804 22.6616C0.739336 22.7639 0.436675 22.5001 0.522384 21.7411C0.592351 21.1913 0.76501 20.6599 1.03128 20.1746C1.94194 18.5435 3.28115 17.2569 4.67124 16.0538C6.73897 14.2531 8.88438 12.5493 10.9816 10.789C11.2767 10.488 11.5455 10.162 11.7851 9.81467C11.4315 9.54551 11.1155 9.19561 10.7137 9.04488C9.33703 8.52002 7.91479 8.06246 6.50863 7.57528C6.14688 7.42449 5.79369 7.25377 5.45066 7.06388C5.45066 6.9939 5.47209 6.92392 5.48548 6.85124C5.80689 6.85124 6.13097 6.82971 6.4497 6.85124C8.10764 6.97775 9.7629 7.18769 11.4235 7.22807C13.4082 7.27382 15.3983 7.17154 17.3857 7.14194C17.7852 7.12117 18.1858 7.13558 18.5829 7.185C19.2311 7.28728 19.3534 7.60399 18.9498 8.13513C18.667 8.52333 18.3347 8.87261 17.9615 9.17408C15.5509 11.0205 13.1404 12.8373 10.7432 14.6784C9.33257 15.755 7.92997 16.8532 6.53541 17.9728C6.28011 18.2086 6.04367 18.4642 5.82831 18.7373C5.87653 18.8045 5.92206 18.8745 5.97027 18.9445" fill="#7A7A7A"/>
<path d="M35.1302 17.5532H32.3741C32.5777 16.4766 32.7705 15.4188 32.966 14.3718C33.0625 13.8335 33.1884 13.3194 33.2526 12.7864C33.3276 12.1539 32.9848 11.8551 32.3661 11.9332C32.0424 11.97 31.7392 12.1109 31.5017 12.335C31.2642 12.5591 31.1052 12.8544 31.0483 13.1767C30.7805 14.6248 30.4965 16.0728 30.218 17.5425H27.1405C27.2771 16.7727 27.4083 16.0432 27.5396 15.3165C27.8744 13.5428 28.2279 11.7744 28.5467 9.99796C28.619 9.59153 28.7877 9.45964 29.1895 9.45964C30.0091 9.48656 30.8287 9.45964 31.6911 9.45964C31.6697 9.77186 31.6563 10.0276 31.6376 10.2994C34.5838 8.88903 35.2186 8.9294 36.5069 10.6466C36.7105 10.4797 36.9113 10.3129 37.1203 10.1541C37.5405 9.82088 38.0268 9.58195 38.5465 9.45335C39.0662 9.32475 39.6074 9.30946 40.1335 9.4085C41.0468 9.56461 41.6441 10.1702 41.6093 11.1015C41.5545 11.9424 41.4435 12.7787 41.2771 13.6047C41.0709 14.797 40.8379 15.984 40.5915 17.1656C40.5593 17.3244 40.3745 17.5667 40.2567 17.5694C39.2871 17.6044 38.3148 17.5882 37.2863 17.5882C37.5542 16.1025 37.8381 14.6921 38.0898 13.2817C38.2613 12.345 38.1622 12.0651 37.6506 11.9574C37.2885 11.9082 36.9209 11.9922 36.6157 12.1941C36.3104 12.3959 36.0882 12.7019 35.99 13.0556C35.7221 14.4687 35.4543 15.8844 35.1864 17.2975C35.1864 17.3729 35.1489 17.4456 35.1168 17.5667" fill="#7A7A7A"/>
<path d="M56.0703 9.48639C56.0301 9.81476 56.0033 10.057 55.9872 10.1862C56.7908 9.91704 57.5943 9.50792 58.4273 9.37873C60.187 9.09611 61.1726 10.0785 60.9128 11.8496C60.645 13.7337 60.2298 15.6178 59.8736 17.5423H56.7399C56.8979 16.681 57.0506 15.8412 57.2032 14.9987C57.3398 14.2639 57.5086 13.5318 57.6023 12.7916C57.6853 12.1241 57.3345 11.8308 56.6729 11.9438C56.3502 11.991 56.0513 12.1414 55.8202 12.3726C55.5892 12.6038 55.4383 12.9036 55.39 13.2277C55.1221 14.6596 54.8543 16.0888 54.565 17.5342H51.4259C51.9161 14.9638 52.3982 12.4202 52.899 9.87667C52.9312 9.72594 53.1374 9.50254 53.2687 9.49716C54.1847 9.46486 55.1007 9.47832 56.0729 9.47832" fill="#7A7A7A"/>
<path d="M21.8401 13.9841C21.7544 14.7915 22.1294 15.3299 22.9115 15.3837C23.6298 15.3832 24.3467 15.3202 25.0542 15.1953C25.292 15.1458 25.5257 15.0784 25.7533 14.9934C25.5149 15.6609 25.3113 16.2504 25.0864 16.8318C25.0327 16.9513 24.9374 17.047 24.8185 17.1009C23.2918 17.7334 21.7491 17.9272 20.2331 17.1009C19.8424 16.8897 19.5078 16.5873 19.2575 16.2192C19.0073 15.851 18.8486 15.4279 18.7948 14.9853C18.3448 12.0542 20.1072 9.69369 23.0186 9.33302C23.4845 9.26014 23.9603 9.28543 24.4158 9.4073C24.8714 9.52917 25.2968 9.74494 25.6649 10.0409C26.5916 10.7999 26.9479 12.7136 26.3532 13.7634C26.2937 13.8274 26.2215 13.8783 26.1412 13.9126C26.061 13.9469 25.9744 13.9639 25.8872 13.9625C24.7408 13.9814 23.5918 13.9625 22.4455 13.9625L21.8401 13.9841ZM22.0089 12.5145C22.6811 12.5145 23.3079 12.5306 23.932 12.501C24.0063 12.4821 24.0749 12.4452 24.1318 12.3936C24.1888 12.342 24.2323 12.2773 24.2587 12.2049C24.288 12.0843 24.2915 11.9588 24.2687 11.8367C24.246 11.7147 24.1977 11.5989 24.1271 11.497C24.0564 11.3952 23.9649 11.3096 23.8588 11.246C23.7526 11.1825 23.6342 11.1423 23.5115 11.1283C22.6329 10.9964 22.0303 11.5374 22.0089 12.5225" fill="#7A7A7A"/>
<path d="M45.9165 13.984C45.796 14.7915 46.2031 15.3729 47.0522 15.3944C47.9486 15.3718 48.843 15.2963 49.7306 15.1683C49.5431 15.6851 49.3288 16.3042 49.0851 16.9125C49.0449 17.0147 48.8923 17.0928 48.7771 17.1439C47.7047 17.6306 46.507 17.7652 45.3541 17.5288C43.6319 17.152 42.7453 15.9139 42.7775 14.0298C42.7717 13.3438 42.9163 12.665 43.201 12.0415C43.4857 11.418 43.9036 10.8651 44.4249 10.4222C44.9462 9.97929 45.5581 9.65715 46.2173 9.47867C46.8764 9.30018 47.5666 9.26974 48.2387 9.3895C49.8618 9.65866 50.8261 10.9452 50.6493 12.6194C50.51 13.984 50.51 13.984 49.1547 13.984H45.9165ZM46.0371 12.5198C46.6076 12.5198 47.1513 12.5198 47.6977 12.5198C48.295 12.5198 48.4825 12.3099 48.2575 11.7581C48.1886 11.6117 48.0901 11.4813 47.9684 11.3752C47.8467 11.2691 47.7043 11.1896 47.5504 11.1417C46.7094 10.956 46.1603 11.462 46.0371 12.5198Z" fill="#7A7A7A"/>
<path d="M15.8831 5.88779C15.7304 6.11657 15.5938 6.31844 15.4412 6.54991C11.6593 4.34551 7.89342 4.2217 4.41684 6.98595C0.940269 9.7502 0.225134 13.4969 1.50809 17.7011C1.39024 17.7603 1.27775 17.8276 1.15722 17.8761C1.03669 17.9245 0.910807 17.9622 0.790279 17.9999C-0.714988 14.8642 -0.214125 9.72598 3.54904 6.48801C7.31221 3.25004 12.6556 3.47344 15.8831 5.88779Z" fill="#7A7A7A"/>
<path d="M33.2124 4.09528C32.7759 4.13835 32.3393 4.18949 31.9027 4.21909C31.209 4.27023 30.9894 3.99838 31.1876 3.32011C31.2947 2.95405 31.4554 2.60415 31.5545 2.24347C31.5756 2.01967 31.5648 1.79399 31.5224 1.57327C31.3402 1.70516 31.0911 1.79667 30.9867 1.97701C30.609 2.64183 30.2662 3.3228 29.9341 4.01992C29.8453 4.24374 29.6843 4.43117 29.477 4.55219C29.2696 4.67321 29.0279 4.72083 28.7904 4.68743C28.2962 4.68625 27.8024 4.71591 27.3119 4.77625C26.3236 4.84892 25.8923 4.27023 26.3236 3.37394C26.8298 2.31884 27.5744 1.55443 28.8493 1.48983C29.8966 1.43869 30.9411 1.28796 31.9884 1.2449C32.704 1.22899 33.4198 1.26136 34.1311 1.3418C34.2427 1.35543 34.3501 1.39242 34.4465 1.45037C34.5429 1.50832 34.6262 1.58595 34.6909 1.67824C35.0579 2.33499 34.7873 2.98366 34.5409 3.60541C34.3588 4.06298 33.9463 4.16257 33.4937 4.14373H33.2124C33.2111 4.1339 33.2111 4.12395 33.2124 4.11412M29.9742 1.6917C28.7475 1.60288 27.4753 2.97558 27.5878 4.07913C27.628 4.44519 27.8556 4.54477 28.1449 4.42365C28.3384 4.34054 28.5033 4.20199 28.619 4.0253C29.0743 3.28242 29.5002 2.52071 29.9769 1.6917M33.807 2.1385L33.2714 1.5652C33.1294 1.72669 32.9258 1.86396 32.8589 2.04968C32.7052 2.4872 32.5905 2.93757 32.516 3.39547C32.5224 3.59015 32.568 3.7815 32.65 3.95801C32.8535 3.85842 33.1562 3.80997 33.2392 3.64579C33.4556 3.15905 33.6417 2.65924 33.7963 2.14927" fill="#7A7A7A"/>
<path d="M50.0865 20.9822V24.3224H49.141V19.3672C49.7543 19.1923 50.199 19.3672 50.6088 19.8867C51.3667 20.8691 52.2024 21.7896 53.1184 22.8716V19.3322H54.1041V24.3036C53.8441 24.3996 53.5593 24.404 53.2965 24.3159C53.0336 24.2279 52.8084 24.0527 52.6577 23.8191C51.8864 22.8232 51.0507 21.8865 50.2231 20.9256L50.0865 20.9822Z" fill="#7A7A7A"/>
<path d="M40.1767 21.6526C41.0579 22.0805 41.2962 22.5004 41.1596 23.2675C41.0525 23.892 40.6641 24.2553 39.8419 24.3118C38.9687 24.3711 38.0929 24.3118 37.1635 24.3118V19.3674C38.1036 19.3674 39.0678 19.3244 40.0293 19.3836C40.2629 19.3979 40.4838 19.4954 40.6522 19.6587C40.8206 19.8221 40.9255 20.0404 40.948 20.2745C41.0471 20.8989 40.8248 21.3511 40.174 21.6499M38.1464 23.569C38.6634 23.5447 39.1187 23.5313 39.5687 23.499C39.9624 23.4694 40.1258 23.2298 40.1392 22.8422C40.1532 22.7563 40.1491 22.6684 40.127 22.5842C40.1049 22.5 40.0654 22.4214 40.0111 22.3536C39.9568 22.2857 39.8888 22.2302 39.8116 22.1906C39.7345 22.1509 39.6498 22.1281 39.5633 22.1236C39.1026 22.0778 38.6339 22.1236 38.1464 22.1236V23.569ZM38.1464 21.2757C38.5926 21.3113 39.0412 21.3023 39.4856 21.2488C39.6036 21.1957 39.7082 21.1166 39.7917 21.0173C39.8751 20.9181 39.9353 20.8013 39.9677 20.6755C40.0427 20.3606 39.8285 20.1211 39.4776 20.1076C39.0437 20.0915 38.6071 20.1076 38.1384 20.1076L38.1464 21.2757Z" fill="#7A7A7A"/>
<path d="M21.7302 1.39819C22.1158 1.50585 22.6703 1.49778 22.8471 1.75079C23.0238 2.00379 22.8899 2.55826 22.8899 3.03467L24.0684 2.90817C24.1166 2.33486 24.1648 1.79116 24.213 1.22593C24.213 1.22593 24.213 1.20978 24.2371 1.20978C25.3674 1.08058 25.4424 1.14787 25.3085 2.28641C25.196 3.22039 25.0407 4.15167 24.9442 5.08565C24.8907 5.57283 24.8934 6.06539 24.8693 6.5714C23.664 6.75712 23.5917 6.69791 23.7229 5.45978C23.8006 4.71691 23.9104 3.97941 24.0175 3.15579L22.7908 3.26345C22.6783 4.37238 22.5712 5.4544 22.4587 6.58217C22.5015 6.54987 22.4881 6.56602 22.4587 6.56871C21.0498 6.77058 21.248 6.51219 21.3873 5.58629C21.532 4.57964 21.623 3.56491 21.7194 2.55288C21.7355 2.23188 21.7355 1.91028 21.7194 1.58929V1.39819" fill="#7A7A7A"/>
<path d="M58.1218 21.639L60.961 24.3144C60.0423 24.4248 59.3218 24.4463 58.7486 23.7007C58.2504 23.0548 57.6424 22.4922 57.0826 21.8947L56.9032 21.9943V24.3306H55.8827V19.3485H56.8817V21.534L57.0665 21.639C57.5701 21.1007 58.0977 20.5785 58.5691 20.024C59.0405 19.4696 59.6405 19.1224 60.4146 19.3754L58.1218 21.639Z" fill="#7A7A7A"/>
<path d="M47.9439 24.2982C46.9528 24.457 46.9689 24.4463 46.4868 23.663C46.423 23.5789 46.3424 23.5091 46.2501 23.4581C46.1579 23.4071 46.056 23.3761 45.9511 23.367C45.2258 23.3279 44.4989 23.3279 43.7736 23.367C43.6544 23.3807 43.5401 23.4221 43.4397 23.488C43.3392 23.5539 43.2555 23.6424 43.195 23.7465C42.9754 24.3924 42.5442 24.4409 41.9469 24.3144C42.0192 24.1314 42.0701 23.9726 42.1424 23.8218C42.8308 22.4303 43.5272 21.0441 44.2048 19.6472C44.2542 19.5046 44.3502 19.3831 44.4772 19.3025C44.6041 19.2218 44.7545 19.1868 44.9039 19.2031C45.0528 19.1866 45.203 19.2202 45.331 19.2986C45.4589 19.377 45.5574 19.4958 45.611 19.6364C46.3234 21.0791 47.0653 22.5083 47.7912 23.9429C47.8463 24.0612 47.8946 24.1825 47.9358 24.3063M44.8557 20.3066L43.7441 22.5783H45.9538C45.5842 21.8166 45.2521 21.1302 44.8557 20.3066Z" fill="#7A7A7A"/>
<path d="M16.6304 20.8501C16.8581 21.0627 17.0509 21.2377 17.2411 21.4126C14.2574 24.6964 8.74251 25.3773 4.97131 22.9522L5.38647 22.212C7.14751 23.2555 9.20061 23.6895 11.2308 23.4475C13.2687 23.2116 15.1695 22.2973 16.6304 20.8501Z" fill="#7A7A7A"/>
<path d="M46.7894 4.83268C45.6698 5.03186 45.5922 4.97264 45.6163 3.75605C45.6052 3.29577 45.6429 2.83561 45.7288 2.38334C45.82 2.04534 45.9795 1.72985 46.1974 1.45654C46.4153 1.18324 46.6869 0.957984 46.9952 0.794837C47.3036 0.63169 47.6421 0.534149 47.9896 0.508297C48.3372 0.482446 48.6863 0.52884 49.0152 0.644584C49.5268 0.832995 49.6794 1.25557 49.6687 1.74813C49.6446 2.84091 49.5964 3.93638 49.5669 5.03186C49.5535 5.50288 49.5669 5.9766 49.5669 6.50415C49.6446 6.46109 49.6285 6.47724 49.6125 6.47724C48.3965 6.64411 48.3322 6.58221 48.3724 5.35754C48.4099 4.28091 48.4554 3.20428 48.4741 2.12764C48.4902 1.26634 48.2063 0.830303 47.6894 0.806079C47.1724 0.781855 46.8189 1.20174 46.7734 2.0469C46.7251 2.95127 46.7734 3.86102 46.7867 4.82999" fill="#7A7A7A"/>
<path d="M53.9142 2.88393H52.5294C52.7684 2.44727 52.9839 1.99803 53.1749 1.53815C53.3464 1.06443 53.124 0.771045 52.6768 0.849101C52.5912 0.881174 52.5137 0.93181 52.4498 0.997406C52.3859 1.063 52.3372 1.14194 52.3071 1.22861C52.0393 2.06031 51.6723 2.33485 50.7965 2.30524C50.8528 1.89074 50.909 1.47355 50.9786 0.959456C51.9458 0.629379 52.9794 0.546135 53.9865 0.717214C54.5061 0.824877 54.6668 1.16132 54.474 1.66734C54.34 2.01994 54.1767 2.35908 53.9892 2.79511C54.3213 2.79511 54.5463 2.79511 54.7713 2.79511C55.3284 2.81395 55.4302 2.96737 55.1864 3.46262C54.8811 4.08438 54.5409 4.6846 54.249 5.31174C54.0749 5.68318 53.9597 6.08691 53.7803 6.58486C53.5446 6.58486 53.2071 6.58486 52.8669 6.58486C52.4169 6.58486 52.3312 6.36953 52.5053 5.99809C52.8883 5.19062 53.2794 4.36969 53.6624 3.55145C53.7481 3.36573 53.8044 3.16655 53.9142 2.87048" fill="#7A7A7A"/>
<path d="M37.3132 0.892171C36.8151 2.19489 36.5713 2.41022 35.6232 2.27564C35.7132 2.08548 35.7824 1.88602 35.8294 1.6808C35.8362 1.44919 35.82 1.21747 35.7812 0.989067C36.7963 0.698377 37.8355 0.501892 38.9042 0.71991C39.4238 0.832956 39.5578 1.1694 39.3542 1.68619C39.2363 1.99033 39.1051 2.2891 38.9846 2.59056C38.982 2.65825 38.9874 2.726 39.0006 2.79243H39.7613C40.1979 2.79243 40.297 3.01044 40.1095 3.38996C39.7613 4.07631 39.3944 4.75189 39.0676 5.44632C38.9248 5.80825 38.8041 6.17858 38.706 6.55525C38.7435 6.55525 38.773 6.50411 38.706 6.55525C38.2587 6.53372 37.8114 6.5068 37.3668 6.47989C37.4785 6.05139 37.6126 5.62912 37.7686 5.21485C38.09 4.4639 38.4542 3.73179 38.8399 2.90816H37.4177C37.5141 2.69015 37.5704 2.54211 37.6427 2.40215C37.7741 2.19036 37.8947 1.97207 38.0043 1.74809C38.2721 1.0752 38.0391 0.789891 37.3025 0.889479" fill="#7A7A7A"/>
<path d="M19.0923 9.57251C19.6895 10.2077 19.0923 10.4338 18.7735 10.8376L18.3477 9.97086L19.0923 9.57251Z" fill="#7A7A7A"/>
<path d="M18.9234 17.1144C19.1725 17.5074 19.9064 17.4858 19.435 18.191L18.6743 17.8653C18.7466 17.6473 18.8109 17.4562 18.9234 17.1251" fill="#7A7A7A"/>
</svg>
