<svg width="70" height="26" viewBox="0 0 70 26" fill="none" xmlns="http://www.w3.org/2000/svg">
<g clip-path="url(#clip0_138_322)">
<path d="M-5.35577 11.8477C-5.82421 13.0538 -6.87841 13.9875 -7.89378 13.9875C-8.63568 13.9875 -8.75258 13.4428 -8.51836 12.8593C-8.16682 12.0034 -7.34685 11.5365 -5.74614 11.5365H-5.23846L-5.35577 11.8477ZM-4.14544 5.35071C-5.35578 5.35071 -6.52687 5.54523 -7.65956 6.0121C-8.8699 6.51783 -9.84602 7.45153 -10.3925 8.6187H-6.60536C-6.29265 7.87951 -5.58999 7.45153 -4.80926 7.45153C-3.87197 7.45153 -3.91121 8.19072 -4.22351 9.04663L-4.45772 9.5913H-5.58999C-7.77646 9.5913 -9.9241 9.90255 -11.3687 11.3031C-11.9152 11.8089 -12.3448 12.4702 -12.6182 13.1705C-12.8525 13.7152 -12.9694 14.2988 -12.8525 14.8823C-12.7744 15.2325 -12.579 15.5437 -12.3059 15.7382C-11.8371 16.0494 -10.9783 16.1273 -10.0802 16.1273C-8.63568 16.1273 -7.34685 15.6993 -6.01961 14.2988L-6.52687 15.7382H-2.81777C-2.70045 15.2714 -2.54431 14.8434 -2.34934 14.4154L-0.435915 9.66913C0.813254 6.44004 -0.397092 5.35071 -4.14544 5.35071Z" fill="#7A7A7A"/>
<path d="M7.56848 9.82474L6.24082 9.51349C4.56204 9.12445 4.48355 8.96883 4.71818 8.34637C4.99123 7.76281 5.61623 7.41267 6.24082 7.45156C6.55311 7.41267 6.82657 7.49046 7.06079 7.68498C7.25576 7.95733 7.29501 8.30748 7.13886 8.61868H10.9653C12.0195 5.89536 10.2626 5.23401 7.09962 5.23401C3.85896 5.23401 1.59442 6.28444 0.540227 8.89104C0.071789 10.0971 0.306009 11.1086 1.43828 11.3809L3.97628 12.0034C5.49891 12.3535 5.69431 12.5091 5.42084 13.2094C5.18662 13.8319 4.56203 14.1042 3.66398 14.1042C3.1563 14.1042 2.80477 14.0653 2.64862 13.8708C2.49247 13.5596 2.49247 13.2483 2.60937 12.9371H-1.1778C-1.95895 15.1547 -1.37319 16.3218 3.11706 16.3218C6.7485 16.3218 8.73957 15.2325 9.63762 12.9371C10.4188 10.953 9.59879 10.2916 7.56848 9.82474Z" fill="#7A7A7A"/>
<path d="M19.0085 9.82474L17.6813 9.51349C16.0021 9.12445 15.924 8.96883 16.1582 8.34637C16.4317 7.76281 17.0563 7.41267 17.6813 7.45156C17.9935 7.41267 18.2666 7.49046 18.5012 7.68498C18.6962 7.95733 18.7355 8.30748 18.5793 8.61868H22.4057C23.4599 5.89536 21.7027 5.23401 18.5401 5.23401C15.2994 5.23401 13.0349 6.28444 11.9807 8.89104C11.5118 10.0971 11.746 11.1086 12.8787 11.3809L15.4163 12.0423C16.9394 12.3924 17.1343 12.5481 16.8613 13.2483C16.6271 13.8708 16.0021 14.1431 15.104 14.1431C14.5963 14.1431 14.2452 14.1042 14.0891 13.9097C13.9329 13.5985 13.9329 13.2873 14.0498 12.976H10.2234C9.44266 15.1936 10.028 16.3607 14.5183 16.3607C18.1885 16.3607 20.1408 15.2713 21.0388 12.976C21.898 10.953 21.0388 10.2916 19.0085 9.82474Z" fill="#7A7A7A"/>
<path d="M53.1342 10.7195C52.5092 12.2368 51.6504 13.5596 50.6743 13.5596C49.6982 13.5596 49.8543 12.2757 50.4789 10.7195C51.1039 9.16336 51.9627 7.87951 52.9388 7.87951C53.915 7.87951 53.7588 9.20226 53.1342 10.7195ZM53.9542 5.35071C51.9239 5.35071 50.1278 5.81758 48.6828 7.06249C47.5505 8.07403 46.6917 9.31899 46.1841 10.7195C45.1687 13.2872 45.4422 14.7656 46.6917 15.5048C47.3944 15.9328 48.4098 16.1273 49.6589 16.1273C53.095 16.1273 55.8284 14.8045 57.4683 10.7584C59.1083 6.71235 57.3903 5.35071 53.9542 5.35071Z" fill="#7A7A7A"/>
<path d="M63.091 8.26851L63.989 5.70081H60.0065C59.733 6.55672 59.2253 7.87947 58.6007 9.43563L56.1016 15.7382H60.2407L61.646 12.1978C62.3879 10.3304 63.4033 9.20221 65.1994 9.20221H65.9801L67.5032 5.31177C65.7851 5.4285 64.6529 5.81754 63.091 8.26851Z" fill="#7A7A7A"/>
<path d="M41.4205 10.7196C40.9132 12.0423 40.0932 13.4429 38.961 13.4429C37.8287 13.4429 38.141 12.0423 38.6483 10.7196C39.2733 9.12453 40.1321 7.99627 41.1082 7.99627C41.9674 7.99627 42.0843 9.0856 41.4205 10.7196ZM43.6855 4.80611L42.8262 6.94587C42.5139 5.81765 41.5378 5.35078 40.4055 5.35078C39.3121 5.35078 38.2579 5.73982 37.3991 6.40121C36.1888 7.29602 35.0953 8.77439 34.3146 10.7585C33.2211 13.4429 33.4554 15.1547 34.8219 15.8161C35.2907 16.0106 35.798 16.1273 36.3057 16.1273C37.4772 16.1273 38.5702 15.6994 40.054 14.3377L39.5463 15.7383H43.4901L48.3707 3.56116L43.6855 4.80611Z" fill="#7A7A7A"/>
<path d="M29.1211 11.8478C28.6527 13.0538 27.5985 13.9875 26.5831 13.9875C25.8417 13.9875 25.7243 13.4429 25.9586 12.8593C26.3101 12.0034 27.1301 11.5366 28.7308 11.5366H29.2773L29.1211 11.8478ZM30.3315 5.35074C29.1212 5.31184 27.9501 5.5453 26.8178 6.01213C25.607 6.5179 24.6309 7.45161 24.0844 8.61873H27.872C28.1843 7.91844 28.8869 7.45161 29.6681 7.45161C30.605 7.45161 30.5661 8.19079 30.2534 9.0467L30.0192 9.59137H28.9262C26.7397 9.59137 24.5921 9.90258 23.1475 11.3032C22.6006 11.8089 22.1714 12.4703 21.8979 13.1706C21.6637 13.7152 21.5464 14.2988 21.6637 14.8824C21.7418 15.2325 21.9368 15.5437 22.2102 15.7383C22.6787 16.0495 23.5379 16.1273 24.4359 16.1273C25.8805 16.1273 27.1689 15.6994 28.4966 14.2988L27.9889 15.7383H31.6984C31.8153 15.2714 31.9714 14.8435 32.1276 14.4155L34.041 9.66916C35.2906 6.44007 34.041 5.35074 30.3315 5.35074Z" fill="#7A7A7A"/>
<path d="M-1.41199 21.2627H-0.670087V23.0134H1.39906V21.2627H2.18021V25.62H1.39906V23.6748H-0.670087V25.62H-1.41199V21.2627Z" fill="#7A7A7A"/>
<path d="M7.02151 25.0363C7.91956 25.0752 8.66146 24.4139 8.73953 23.5579C8.77878 22.6631 8.11496 21.924 7.25573 21.8462C6.39693 21.7683 5.61619 22.4686 5.53812 23.3245C5.53812 23.3634 5.53812 23.4023 5.53812 23.4413C5.45963 24.2582 6.08464 24.9585 6.90461 25.0363C6.94344 25.0363 6.98268 25.0363 7.02151 25.0363ZM7.02151 21.1459C8.38842 21.1459 9.36454 22.0407 9.36454 23.4023C9.36454 24.6862 8.31034 25.7366 7.02151 25.7366C5.7331 25.7366 4.6789 24.6862 4.6789 23.4023C4.64007 22.1963 5.57695 21.1848 6.78729 21.1459C6.86536 21.1459 6.94344 21.1459 7.02151 21.1459Z" fill="#7A7A7A"/>
<path d="M13.2298 23.169C13.7374 23.169 14.2059 23.0523 14.2059 22.5465C14.2059 22.0408 13.7374 21.9241 13.269 21.9241H12.6832V23.169H13.2298ZM11.9021 21.2627H13.3078C14.3232 21.2627 14.9478 21.6128 14.9478 22.5077C14.9478 23.4025 14.1671 23.7915 13.269 23.7915H12.6832V25.62H11.9021V21.2627Z" fill="#7A7A7A"/>
<path d="M18.7352 23.169C19.2425 23.169 19.7114 23.0523 19.7114 22.5465C19.7114 22.0408 19.2425 21.9241 18.7741 21.9241H18.1883V23.169H18.7352ZM17.4076 21.2627H18.8133C19.8283 21.2627 20.4533 21.6128 20.4533 22.5077C20.4533 23.4025 19.6721 23.7915 18.7741 23.7915H18.1883V25.62H17.4076V21.2627Z" fill="#7A7A7A"/>
<path d="M23.7329 21.2627H22.9521V25.62H23.7329V21.2627Z" fill="#7A7A7A"/>
<path d="M26.4663 21.2627H27.5205L29.512 24.5307H29.5508V21.2627H30.3316V25.62H29.3166L27.247 22.2353V25.62H26.4663V21.2627Z" fill="#7A7A7A"/>
<path d="M36.8914 25.3864C36.3838 25.6198 35.798 25.7365 35.2515 25.7365C34.0019 25.8144 32.9477 24.8807 32.8696 23.6357C32.8696 23.5579 32.8696 23.4801 32.8696 23.4412C32.8696 22.0406 33.885 21.1847 35.2515 21.1847C35.8372 21.1458 36.423 21.3403 36.8914 21.7294L36.3449 22.313C36.0326 22.0017 35.6418 21.8461 35.2127 21.8461C34.3146 21.885 33.6508 22.6631 33.6896 23.519C33.7289 24.336 34.3927 24.9973 35.2515 25.0362C35.5638 25.0362 35.8372 24.9973 36.1107 24.8806V23.7913H35.1734V23.1299H36.8522V25.3864H36.8914Z" fill="#7A7A7A"/>
<path d="M42.9043 21.2627H44.1146L45.2473 24.3362L46.3796 21.2627H47.5899V25.62H46.848V22.1186H46.8088L45.4815 25.62H44.9739L43.6462 22.1186V25.62H42.9043V21.2627Z" fill="#7A7A7A"/>
<path d="M52.7047 23.9471L52.0408 22.1575L51.3382 23.9471H52.7047ZM51.7286 21.2627H52.3924L54.2666 25.62H53.3685L52.9781 24.6085H51.0647L50.6744 25.62H49.8156L51.7286 21.2627Z" fill="#7A7A7A"/>
<path d="M56.4531 21.2627H57.2343V24.9197H59.1084V25.62H56.4531V21.2627Z" fill="#7A7A7A"/>
<path d="M61.3728 21.2627H62.1535V24.9197H64.0277V25.62H61.3728V21.2627Z" fill="#7A7A7A"/>
<path d="M68.245 4.41699H68.3231C68.44 4.41699 68.518 4.3781 68.518 4.30031C68.518 4.22247 68.4792 4.18358 68.3231 4.18358H68.2058L68.245 4.41699ZM68.245 4.92276H68.0496V4.02795C68.1665 3.98902 68.2838 3.98902 68.4011 3.98902C68.518 3.98902 68.5961 3.98902 68.7134 4.06681C68.7523 4.1057 68.7915 4.1835 68.7915 4.26129C68.7915 4.37802 68.7134 4.45585 68.5961 4.45585C68.6742 4.49474 68.7523 4.57254 68.7523 4.68926C68.7523 4.76706 68.7915 4.84489 68.8303 4.92268H68.5961C68.5573 4.84489 68.5573 4.76706 68.518 4.68926C68.518 4.61143 68.44 4.57254 68.3231 4.57254H68.245V4.92276ZM67.7373 4.45593C67.7373 4.84497 68.0104 5.15618 68.4011 5.15618C68.4011 5.15618 68.4011 5.15618 68.44 5.15618C68.8303 5.11728 69.1038 4.80604 69.1038 4.41699C69.0646 4.06685 68.7915 3.7945 68.44 3.7556C68.0104 3.7556 67.7373 4.06685 67.7373 4.45593ZM69.2992 4.45593C69.2992 4.92276 68.9084 5.3507 68.44 5.3507C68.44 5.3507 68.44 5.3507 68.4011 5.3507C67.9323 5.38964 67.5031 5.00056 67.4638 4.53372C67.425 4.06685 67.8154 3.63891 68.2838 3.59998C68.3231 3.59998 68.3619 3.59998 68.4011 3.59998C68.8696 3.56104 69.2599 3.95012 69.2992 4.45593Z" fill="#7A7A7A"/>
</g>
<defs>
<clipPath id="clip0_138_322">
<rect width="130.678" height="25.7918" fill="white" transform="translate(-61.1108)"/>
</clipPath>
</defs>
</svg>
