<svg width="62" height="21" viewBox="0 0 62 21" fill="none" xmlns="http://www.w3.org/2000/svg">
<path d="M12.1236 13.8509C13.5305 13.8509 14.671 12.7137 14.671 11.3108C14.671 9.90789 13.5305 8.77063 12.1236 8.77063C10.7167 8.77063 9.57617 9.90789 9.57617 11.3108C9.57617 12.7137 10.7167 13.8509 12.1236 13.8509Z" fill="#7A7A7A"/>
<path d="M3.51139 2.95305L8.77387 8.18797C9.25857 7.67075 9.85698 7.2727 10.5221 7.02512L8.22843 0C6.44582 0.602327 4.83006 1.61386 3.51139 2.95305ZM0 10.8245L7.43133 10.9735C7.42291 10.2659 7.57906 9.56603 7.88753 8.92872L1.35701 5.43756C0.487801 7.10242 0.0229761 8.94762 0 10.8245ZM2.60004 18.9531L8.43666 14.3623C7.97906 13.8212 7.65359 13.1817 7.48582 12.4939L0.218491 13.9326C0.606953 15.7691 1.42273 17.4888 2.60004 18.9531Z" fill="#7A7A7A"/>
<path d="M0.000244141 10.8244L7.43158 10.9735C7.42315 10.2659 7.5793 9.56597 7.88778 8.92867L1.35726 5.4375C0.488045 7.10237 0.0232202 8.94757 0.000244141 10.8244ZM2.60029 18.953L8.4369 14.3623C7.97931 13.8212 7.65383 13.1816 7.48607 12.4939L0.218735 13.9326C0.607198 15.769 1.42297 17.4887 2.60029 18.953Z" fill="#7A7A7A"/>
<path d="M12.1261 1.97266C11.7913 1.9725 11.4567 1.99002 11.1237 2.02516L12.203 6.8238C12.883 6.8395 13.5508 7.00725 14.1571 7.31468C14.7633 7.6221 15.2927 8.06136 15.706 8.60002C16.1193 9.13869 16.406 9.76302 16.545 10.4269C16.684 11.0909 16.6717 11.7774 16.5091 12.436C16.3464 13.0946 16.0375 13.7083 15.6052 14.2319C15.1729 14.7556 14.6282 15.1757 14.0113 15.4614C13.3944 15.7471 12.7211 15.891 12.041 15.8825C11.3609 15.874 10.6913 15.7133 10.0818 15.4123L6.26978 18.7169C7.93379 20.0383 9.99891 20.7563 12.1261 20.753C17.3273 20.753 21.5434 16.5487 21.5434 11.3626C21.5434 6.17649 17.3273 1.97266 12.1261 1.97266Z" fill="#7A7A7A"/>
<path opacity="0.5" d="M11.1448 2.11829L12.2027 6.82349C12.8827 6.83923 13.5504 7.007 14.1567 7.31443C14.7629 7.62186 15.2922 8.0611 15.7055 8.59975C16.1187 9.13839 16.4054 9.76268 16.5444 10.4266C16.6834 11.0905 16.6712 11.777 16.5086 12.4355C16.3459 13.0941 16.0371 13.7078 15.6049 14.2314C15.1726 14.755 14.628 15.1752 14.0111 15.4609C13.3943 15.7466 12.721 15.8906 12.0409 15.8822C11.3608 15.8737 10.6913 15.7132 10.0818 15.4123L6.26978 18.7168C7.7782 19.9106 9.61725 20.6149 11.5393 20.7347C13.4613 20.8545 15.374 20.3841 17.0198 19.387C17.7369 17.6261 18.0842 15.7373 18.0401 13.8373C17.9317 8.82369 15.1816 4.48729 11.1448 2.11829Z" fill="#7A7A7A"/>
<path d="M28.3501 10.1976V10.191L27.2216 11.0438H29.0643C28.7452 11.5295 28.026 11.7048 27.5977 11.7048C27.3655 11.7049 27.1364 11.6516 26.9282 11.549C26.72 11.4464 26.5384 11.2972 26.3974 11.1132C26.2565 10.9291 26.16 10.7151 26.1155 10.4878C26.0711 10.2606 26.0798 10.0261 26.141 9.80272C26.2023 9.57934 26.3144 9.37307 26.4687 9.19995C26.6229 9.02684 26.8151 8.89155 27.0304 8.80461C27.2456 8.71768 27.4781 8.68144 27.7097 8.69873C27.9413 8.71601 28.1657 8.78635 28.3656 8.90426L30.1609 8.08056C29.6571 7.48174 28.9577 7.0791 28.1857 6.94335C27.4137 6.8076 26.6185 6.94742 25.9396 7.33826C25.2607 7.72909 24.7416 8.34595 24.4735 9.08049C24.2054 9.81503 24.2054 10.6203 24.4736 11.3548C24.7417 12.0893 25.2608 12.7062 25.9397 13.097C26.6186 13.4878 27.4139 13.6276 28.1859 13.4918C28.9579 13.356 29.6572 12.9533 30.161 12.3545C30.6649 11.7556 30.941 10.9989 30.9409 10.2173V10.1976H28.3501ZM35.6751 6.92296L31.8844 13.5116L35.6356 13.5179V11.6016C35.3866 11.5833 35.1544 11.4694 34.9878 11.2839C34.8213 11.0984 34.7333 10.8557 34.7424 10.6069C34.7515 10.3581 34.857 10.1225 35.0366 9.94956C35.2163 9.77665 35.4562 9.67991 35.7059 9.67967H35.7146C35.8627 9.67967 36.0088 9.71432 36.1411 9.78084C36.2734 9.84735 36.3883 9.94387 36.4764 10.0626C36.5786 10.1978 36.6433 10.3574 36.6639 10.5254C36.6844 10.6935 36.6602 10.8639 36.5936 11.0196C36.527 11.1753 36.4204 11.3108 36.2846 11.4123C36.1487 11.5138 35.9884 11.5777 35.8199 11.5977V13.5186L39.5579 13.5252L35.6751 6.92296Z" fill="#7A7A7A"/>
<path d="M35.6981 11.3591C36.1004 11.3591 36.4265 11.034 36.4265 10.6328C36.4265 10.2317 36.1004 9.90649 35.6981 9.90649C35.2958 9.90649 34.9697 10.2317 34.9697 10.6328C34.9697 11.034 35.2958 11.3591 35.6981 11.3591Z" fill="#7A7A7A"/>
<path d="M57.1557 6.9231L53.365 13.5117L57.1162 13.518V11.6018C56.8672 11.5834 56.635 11.4695 56.4684 11.284C56.3019 11.0985 56.2139 10.8559 56.223 10.607C56.2321 10.3582 56.3376 10.1226 56.5172 9.94969C56.6969 9.77679 56.9368 9.68005 57.1865 9.6798H57.1952C57.3433 9.67981 57.4894 9.71446 57.6217 9.78097C57.7541 9.84748 57.8689 9.944 57.957 10.0628C58.0592 10.1979 58.1239 10.3576 58.1445 10.5256C58.1651 10.6936 58.1408 10.8641 58.0742 11.0198C58.0076 11.1755 57.901 11.3109 57.7652 11.4124C57.6293 11.5139 57.469 11.5779 57.3005 11.5978V13.5188L61.0385 13.5253L57.1557 6.9231Z" fill="#7A7A7A"/>
<path d="M57.1791 11.3591C57.5814 11.3591 57.9075 11.034 57.9075 10.6328C57.9075 10.2317 57.5814 9.90649 57.1791 9.90649C56.7768 9.90649 56.4507 10.2317 56.4507 10.6328C56.4507 11.034 56.7768 11.3591 57.1791 11.3591Z" fill="#7A7A7A"/>
<path d="M50.886 6.97522V9.7398C51.0467 9.90438 51.1366 10.125 51.1366 10.3547C51.1366 10.5844 51.0467 10.805 50.886 10.9696V13.4851H52.7211V6.97522H50.886ZM47.6321 13.4851H49.4619V10.9696C49.3015 10.8048 49.2118 10.5843 49.2118 10.3547C49.2118 10.1251 49.3015 9.90454 49.4619 9.7398V6.97522H47.6321V13.4851Z" fill="#7A7A7A"/>
<path d="M50.145 10.9671C50.5161 10.9671 50.817 10.6863 50.817 10.34C50.817 9.99365 50.5161 9.71289 50.145 9.71289C49.7738 9.71289 49.4729 9.99365 49.4729 10.34C49.4729 10.6863 49.7738 10.9671 50.145 10.9671Z" fill="#7A7A7A"/>
<path d="M46.5984 9.93723H41.502C41.5334 9.55506 41.6903 9.19387 41.9485 8.90969C42.2066 8.6255 42.5516 8.43417 42.9299 8.36539C43.3082 8.2966 43.6987 8.35419 44.0409 8.52922C44.383 8.70425 44.6577 8.98696 44.8223 9.33349H46.5102C46.3225 8.55818 45.8612 7.87614 45.2106 7.4121C44.5601 6.94805 43.7637 6.73301 42.9673 6.80629C42.1708 6.87956 41.4274 7.23626 40.8729 7.81116C40.3185 8.38607 39.9901 9.14075 39.9478 9.93723H39.9399L39.9442 10.0483V10.1128C39.9442 10.2178 39.9491 10.3221 39.9589 10.4257L39.9721 10.7772L44.8384 10.7636C44.5656 11.3718 43.9539 11.8219 43.2428 11.8219C42.9957 11.8221 42.7512 11.7699 42.5258 11.6688C42.3004 11.5676 42.0991 11.4199 41.9353 11.2353H40.1379C40.4034 11.9706 40.9205 12.589 41.5982 12.9817C42.2759 13.3744 43.0707 13.5162 43.8429 13.3821C44.6151 13.248 45.3151 12.8467 45.8198 12.2487C46.3245 11.6507 46.6015 10.8944 46.6021 10.1128C46.6021 10.0538 46.6021 9.99524 46.5984 9.93723Z" fill="#7A7A7A"/>
<path d="M24.2717 17.0382V15.3241L25.5021 15.3212C25.5649 15.3179 25.6271 15.3343 25.6801 15.3679C25.7286 15.4059 25.7609 15.4608 25.7706 15.5215C25.7685 15.7392 25.7675 15.9579 25.7675 16.1777C25.7675 16.3975 25.7685 16.627 25.7706 16.8662C25.7403 16.9812 25.6508 17.0388 25.5021 17.039L24.2717 17.0382ZM25.2307 16.6623V15.6911H24.7814L24.7785 16.6623H25.2307ZM30.9181 17.0353H30.4124V15.3241H30.922L30.9181 17.0353ZM36.0745 16.4376V16.6652H36.5388V16.3636H36.2524V16.0042H37.0485V16.6623H37.0545L37.0485 16.6788V17.0353H35.5617V15.3241H37.0545L36.9066 15.6916H36.0745V15.9192H36.0721V16.4376H36.0745ZM42.202 17.0353H41.6952V15.3241H42.2056L42.202 17.0353ZM46.8277 15.3212H48.3202V15.6806H47.8259L47.8227 17.0353H47.3162V15.6806H46.8277V15.3212ZM53.6304 15.3102H54.1792L54.8276 17.0327H53.7659V16.6678H54.1792L53.9047 15.8945L53.4553 17.0327H52.9428L53.6304 15.3102ZM59.9745 16.6678H60.8066L60.9543 17.0353H59.4617V15.3241H59.9713L59.9745 16.6678Z" fill="#7A7A7A"/>
<path d="M5.29124 1.4657C4.65161 1.90341 4.05569 2.40147 3.51172 2.95299L8.7742 8.1879C9.12266 7.81716 9.53044 7.5067 9.9809 7.26917V7.18045C9.98248 4.35444 7.96657 1.99882 5.29124 1.4657Z" fill="#7A7A7A"/>
<path d="M0.254604 8.53C0.097866 9.28754 0.0146482 10.0584 0.00610352 10.8318L7.43875 10.9657C7.43186 10.4577 7.50951 9.9521 7.66856 9.46947C7.64829 9.44794 7.62829 9.42642 7.60775 9.40489C5.6437 7.36821 2.5535 7.06503 0.254604 8.53Z" fill="#7A7A7A"/>
<path d="M1.30713 17.0304C1.66785 17.7151 2.0939 18.3636 2.57938 18.9668L8.41046 14.3692C8.08168 13.9807 7.81988 13.5405 7.63574 13.0665C7.60652 13.0625 7.5773 13.0583 7.54782 13.0549C4.73454 12.7237 2.1524 14.4435 1.30713 17.0304Z" fill="#7A7A7A"/>
<path opacity="0.7" d="M14.6709 11.3107C14.6715 10.8976 14.5705 10.4905 14.3768 10.1253C14.1336 9.86409 13.8305 9.66557 13.4935 9.54675C13.1564 9.42794 12.7956 9.39237 12.4417 9.44309C12.0879 9.49382 11.7517 9.62932 11.4619 9.838C11.1721 10.0467 10.9373 10.3223 10.7777 10.6413C10.6182 10.9602 10.5385 11.313 10.5456 11.6694C10.5527 12.0258 10.6463 12.3751 10.8185 12.6875C10.9906 12.9999 11.2362 13.266 11.5341 13.463C11.832 13.6601 12.1733 13.7822 12.5289 13.8188C13.1265 13.7226 13.6702 13.4174 14.0627 12.9578C14.4552 12.4982 14.6708 11.9144 14.6709 11.3107Z" fill="#7A7A7A"/>
</svg>
