<svg width="61" height="13" viewBox="0 0 61 13" fill="none" xmlns="http://www.w3.org/2000/svg">
<path d="M60.806 10.2711L58.5457 7.80317L60.5677 5.46589L59.2895 5.47314L57.5058 7.81769L59.3762 10.2784L60.806 10.2711ZM56.2349 10.2929L57.2531 10.2856L57.2242 3.41895L56.206 3.4262L56.2349 10.2929ZM51.2449 10.3074H52.2631L52.2559 8.3258C52.2487 7.19345 52.8986 6.2716 53.7074 6.2716C54.2418 6.2716 54.5956 6.6055 54.5956 7.1136L54.6101 10.2929L55.6211 10.2856L55.6066 6.89584C55.5994 6.00303 54.8628 5.41508 53.7579 5.42234C53.1297 5.42234 52.5736 5.90141 52.2342 6.62727L52.1692 5.50218L51.216 5.50944L51.2449 10.3074ZM47.0204 7.92657C47.0204 6.99746 47.4537 6.37322 48.1036 6.36596L49.324 6.3587L49.3312 7.83947C49.3385 8.77584 48.7896 9.53799 48.118 9.54525C47.4609 9.55251 47.0204 8.90649 47.0204 7.92657ZM45.9661 7.93383C45.9733 9.4146 46.7532 10.4018 47.9231 10.3945C48.5441 10.3945 49.0929 9.93722 49.4179 9.25491L49.4757 10.2856L50.4 10.3364C50.4 10.3364 50.3567 9.57429 50.3567 9.00811L50.3422 5.50218L49.454 5.50944L49.3312 6.30063L48.8185 5.50944L47.9014 5.5167C46.7315 5.53121 45.9588 6.48936 45.9661 7.93383ZM42.3337 4.42064H43.0847C43.8502 4.41338 44.3701 4.75454 44.3701 5.26264C44.3701 5.9377 43.8574 6.395 43.092 6.40225H42.3409L42.3337 4.42064ZM42.3482 7.24426L43.3519 7.237C44.1246 7.237 44.6373 7.73788 44.6373 8.50727C44.6446 9.10248 44.1318 9.5017 43.3591 9.5017L42.3554 9.50896L42.3482 7.24426ZM41.2794 10.3582L43.5252 10.351C44.8395 10.3437 45.7205 9.60332 45.7133 8.50727C45.7133 7.64349 44.9117 6.93214 43.9152 6.7797C44.724 6.54017 45.3234 5.94496 45.3234 5.25539C45.3161 4.23917 44.4351 3.56412 43.1208 3.57138L41.2577 3.57864L41.2794 10.3582ZM36.1955 10.38L37.2137 10.3727L37.2065 8.46371C37.1993 7.29507 37.8492 6.34419 38.658 6.33693C39.1924 6.32967 39.5463 6.67082 39.5535 7.17893L39.5679 10.3582L40.5861 10.351L40.5717 6.96117C40.5645 6.06835 39.8279 5.4804 38.723 5.4804C38.0948 5.48766 37.5459 5.95948 37.2065 6.69986L37.1921 3.49879L36.1739 3.50605L36.1955 10.38ZM32.1877 10.1405C32.5921 10.3074 33.1914 10.4598 33.6464 10.4598C34.9679 10.4526 35.6756 9.92996 35.6684 8.96456C35.6611 7.93383 34.7946 7.67252 34.0508 7.45476C33.5453 7.30233 33.1264 7.0918 33.1192 6.78693C33.1192 6.49659 33.4514 6.3369 34.0724 6.32964C34.5563 6.32964 34.9896 6.5111 35.3434 6.78693L35.3362 5.65458C34.9318 5.5457 34.5346 5.50215 34.1302 5.50215C32.852 5.50941 32.166 5.9667 32.166 6.80871C32.1732 7.91928 33.0759 8.19511 33.8269 8.41287C34.3469 8.5653 34.7151 8.75403 34.7151 9.07341C34.7151 9.42909 34.4118 9.62507 33.7619 9.63233C33.2925 9.63233 32.6715 9.42183 32.1732 9.02986L32.1877 10.1405ZM28.0931 8.01368C28.0859 7.07731 28.5192 6.46032 29.1763 6.45306L30.3968 6.44581L30.404 7.92657C30.4112 8.86294 29.8624 9.6251 29.198 9.6251C28.5336 9.63962 28.1004 8.99359 28.0931 8.01368ZM27.0388 8.02093C27.046 9.5017 27.8259 10.4889 28.9886 10.4889C29.6168 10.4816 30.1585 10.0316 30.4834 9.34927L30.5412 10.38L31.4655 10.4308C31.4655 10.4308 31.4222 9.66865 31.4222 9.10247L31.4078 5.59654L30.5195 5.6038L30.3968 6.395L29.884 5.6038L28.9741 5.61106C27.8043 5.61106 27.0316 6.57646 27.0388 8.02093ZM21.4783 10.4453L22.4966 10.4381L23.5003 7.17167L24.533 10.4236L25.5512 10.4163L27.0533 5.6038L25.7606 5.61106L25.0457 9.58155L24.0419 5.61832L22.9732 5.62558L21.9983 9.60332L21.2256 5.6401L19.933 5.64735L21.4783 10.4453ZM16.9 8.25321L17.8749 4.54404L18.8859 8.23869L16.9 8.25321ZM15.1741 10.4744L16.3151 10.4671L16.6906 9.05166L19.1025 9.04441L19.4852 10.4526L20.6262 10.4453L18.4309 3.68026L17.3116 3.68752L15.1741 10.4744Z" fill="#7A7A7A"/>
<path d="M12.2061 8.01374C12.1772 7.94841 12.1339 7.8976 12.0978 7.83953C12.0545 7.78146 12.0112 7.73065 11.9606 7.6871C11.9101 7.64355 11.8523 7.61451 11.7801 7.58548C11.7223 7.57096 11.6501 7.5637 11.5779 7.57096C11.4407 7.58548 11.3035 7.63629 11.1807 7.69436C10.928 7.81776 10.6896 7.97745 10.4586 8.1444C10.2275 8.31135 10.0036 8.48555 9.77975 8.65976L9.17315 9.13157C8.97095 9.29127 8.76153 9.43644 8.55934 9.58887C8.34992 9.73404 8.1405 9.88647 7.92385 10.0171L7.59889 10.2204L7.25949 10.4018C7.03562 10.5325 6.79009 10.6269 6.55178 10.7357L6.01018 10.9317L5.8152 10.9825L5.43247 11.0769C5.30248 11.1059 5.1725 11.1204 5.04251 11.1495C4.78254 11.2003 4.52257 11.2148 4.2626 11.2366C4.00263 11.2438 3.74266 11.2584 3.48269 11.2511L3.09274 11.2438L2.70278 11.2148C2.66668 11.2148 2.63779 11.2076 2.60168 11.2076C4.10373 12.2963 6.07517 12.7246 8.0105 12.1947C10.0903 11.6286 11.6429 10.097 12.3072 8.21698L12.2061 8.01374Z" fill="#7A7A7A"/>
<path d="M12.4588 4.98682C12.4155 4.98682 12.3433 4.99407 12.2783 5.01585C12.1483 5.05214 12.0111 5.11747 11.8739 5.19006C11.5995 5.33523 11.3395 5.52396 11.0795 5.70542L10.2924 6.2716C10.0252 6.46032 9.75802 6.64179 9.49083 6.82326C9.35362 6.91036 9.21641 6.99021 9.07921 7.07731C8.942 7.16441 8.79757 7.237 8.65315 7.31687C8.51594 7.39671 8.36429 7.4693 8.21986 7.54189C8.07544 7.61447 7.93101 7.68706 7.77936 7.73787C7.62771 7.79594 7.48328 7.86853 7.32441 7.91208L6.85501 8.05725L6.3784 8.16613C6.21953 8.20242 6.06066 8.21694 5.90179 8.23872C5.74292 8.26775 5.57683 8.27501 5.41796 8.28227C5.25186 8.29679 5.09299 8.30404 4.93412 8.29679C4.76803 8.29679 4.60916 8.30404 4.45029 8.29679C4.2842 8.28953 4.12533 8.28953 3.96646 8.27501C3.6415 8.25323 3.32375 8.23146 2.99879 8.19516L2.03835 8.09354C1.72061 8.06451 1.39564 8.03547 1.0779 8.04273C0.919033 8.04273 0.760163 8.05725 0.615735 8.09354C0.543521 8.10806 0.48575 8.12984 0.427979 8.16613C0.687948 8.94281 1.09235 9.63238 1.59784 10.2203C1.62673 10.2276 1.64839 10.2276 1.67728 10.2276C2.02391 10.2784 2.37053 10.322 2.71716 10.3582C3.06379 10.3945 3.41041 10.4236 3.75704 10.4308C3.93035 10.4308 4.10366 10.4381 4.27698 10.4308C4.45029 10.4236 4.6236 10.4163 4.7897 10.4018C4.95579 10.38 5.1291 10.3582 5.29519 10.3365L5.80069 10.2276L6.29174 10.0752C6.45062 10.0171 6.60949 9.9445 6.76836 9.87917C6.92723 9.80659 7.07888 9.72674 7.23053 9.65416C7.38218 9.57431 7.53383 9.47995 7.68548 9.4001C7.98156 9.21864 8.27041 9.02991 8.55205 8.82667C8.83368 8.62343 9.11531 8.41292 9.38973 8.20242C9.67136 7.99192 9.953 7.78142 10.2491 7.57818C10.5451 7.38219 10.8557 7.19345 11.2095 7.09183C11.3828 7.04828 11.5778 7.0265 11.7656 7.06279C11.9461 7.09909 12.1266 7.18619 12.2566 7.31687C12.3216 7.38219 12.3866 7.44752 12.4444 7.52011C12.6249 6.7144 12.6394 5.85788 12.466 5.00135L12.4588 4.98682Z" fill="#7A7A7A"/>
<path d="M2.50072 7.47639C2.85456 7.51995 3.20841 7.55624 3.55504 7.59253C3.90889 7.62157 4.25551 7.64334 4.60936 7.6506C4.78267 7.6506 4.96321 7.6506 5.13652 7.64335C5.30984 7.62883 5.48315 7.62157 5.65646 7.60705C5.82978 7.57802 6.00309 7.5635 6.16918 7.52721L6.66746 7.41107L7.17295 7.2441C7.33183 7.17877 7.48348 7.10618 7.64235 7.04085C7.80122 6.96827 7.95287 6.88116 8.10452 6.80132C8.25617 6.72147 8.40782 6.61985 8.55225 6.53275C8.84832 6.34402 9.12996 6.14804 9.41159 5.93754C9.62823 5.77785 9.83765 5.6109 10.0543 5.44395C9.75822 5.53831 9.46936 5.61816 9.19495 5.698L9.15884 5.70526C9.08663 5.71978 9.02164 5.7343 8.94942 5.75607C8.80499 5.79236 8.66057 5.82866 8.5017 5.85769L8.47281 5.86495C8.40782 5.87221 8.3356 5.88673 8.27061 5.90124C8.12618 5.93028 7.98176 5.95205 7.82289 5.98109L7.77956 5.98835L7.56292 6.01012C7.42571 6.02464 7.2885 6.03916 7.14407 6.05367L7.07185 6.06093L6.37138 6.07545L5.64202 6.02464C5.49759 6.01012 5.35316 5.98835 5.20874 5.96657C5.13652 5.95931 5.07153 5.9448 4.99932 5.93754L4.95599 5.93028C4.80434 5.90124 4.66713 5.87221 4.52993 5.84317C4.45771 5.82866 4.3855 5.81414 4.31328 5.79962L4.2844 5.79236C4.13275 5.75607 3.98832 5.71252 3.85112 5.67623C3.7789 5.65445 3.71391 5.63267 3.6417 5.61816L3.60559 5.6109C3.20119 5.4875 2.78235 5.34233 2.34185 5.17538C1.90856 5.00843 1.48972 4.83422 1.12865 4.68905C1.02755 4.6455 0.85424 4.57291 0.637598 4.47855C0.529278 4.435 0.413735 4.38418 0.28375 4.33337C-0.0339908 5.33507 -0.0917618 6.43113 0.146544 7.51992C0.204315 7.49815 0.262086 7.47637 0.319857 7.46186C0.695369 7.36749 1.06366 7.37475 1.42473 7.39653C1.79302 7.39653 2.14687 7.43284 2.50072 7.47639Z" fill="#7A7A7A"/>
<path d="M4.71776 1.18321C5.43268 1.90182 6.94195 3.09224 10.9354 1.99618C9.78717 0.76221 8.1407 -0.00720775 6.31368 5.09103e-05C5.5771 5.09103e-05 4.86941 0.130707 4.21948 0.370243C4.30614 0.638813 4.45779 0.921902 4.71776 1.18321Z" fill="#7A7A7A"/>
<path d="M11.9753 3.51333C11.8814 3.3246 11.7803 3.14314 11.672 2.96167C10.4443 3.17943 9.33946 3.29557 8.36457 3.29557C6.32814 3.30283 4.84776 2.84553 3.94509 1.91643C3.59846 1.56075 3.38182 1.17604 3.24461 0.81311C2.1614 1.42284 1.28039 2.35195 0.731567 3.46978C1.93754 4.22468 6.34259 6.46034 11.9753 3.51333Z" fill="#7A7A7A"/>
<path d="M21.298 3.60765C21.3414 3.64395 21.3703 3.6875 21.3703 3.72379C21.3703 3.74557 21.3414 3.76009 21.2908 3.7746C21.0742 3.80364 20.9153 3.81816 20.8214 3.81816C20.7709 3.81816 20.7276 3.78912 20.677 3.72379C20.6481 3.68024 20.6192 3.52781 20.5831 3.25924C20.547 2.96163 20.5037 2.76565 20.4531 2.66403C20.3881 2.51886 20.2943 2.43901 20.1787 2.43901C20.1426 2.43901 20.0921 2.44627 20.0415 2.46804C19.991 2.52611 19.9115 2.67129 19.8032 2.91082C19.6877 3.16488 19.6227 3.36086 19.6227 3.51329C19.6227 3.58588 19.6443 3.62217 19.6804 3.63669C19.7382 3.65846 19.7599 3.67298 19.7671 3.6875C19.7671 3.70928 19.7382 3.72379 19.6732 3.73105C19.4927 3.76008 19.3049 3.76734 19.1027 3.7746C18.9944 3.78186 18.9439 3.70928 18.9366 3.57862C18.9366 3.34634 19.0594 3.02696 19.3194 2.62048C19.3627 2.54789 19.4783 2.39546 19.6516 2.15592C19.8104 1.93816 19.9043 1.82202 19.926 1.80025H19.9188C19.8754 1.80025 19.8104 1.80751 19.731 1.82928C19.6443 1.8438 19.5793 1.85832 19.536 1.85832C19.4638 1.85832 19.4277 1.85106 19.4133 1.82202C19.3916 1.78573 19.3844 1.71314 19.3844 1.597C19.3844 1.61152 19.3844 1.61152 19.3916 1.58975V1.40828C19.3916 1.23407 19.3699 1.13971 19.3266 1.12519C19.2688 1.09616 19.2399 1.08164 19.2399 1.05986C19.2399 1.03809 19.341 1.00905 19.5505 0.980019C19.7166 0.958243 19.8104 0.943726 19.8177 0.943726C19.9332 0.943726 19.991 0.980018 19.991 1.04535C19.991 1.06712 19.9982 1.0889 19.9982 1.11793V1.27762C19.9982 1.46635 20.0126 1.62604 20.0415 1.74218L20.1715 1.72766C20.1932 1.72766 20.2509 1.71314 20.3304 1.69863C20.4026 1.68411 20.4531 1.67685 20.4892 1.68411C20.5398 1.68411 20.5615 1.69137 20.5615 1.71314C20.5615 1.74218 20.4965 1.83654 20.3737 1.99623C20.2437 2.16318 20.1571 2.28658 20.1282 2.35916C20.121 2.36642 20.1282 2.36642 20.1426 2.36642C20.2076 2.36642 20.3087 2.34465 20.4459 2.30835C20.5759 2.2648 20.677 2.25028 20.7492 2.25028C20.7853 2.25028 20.8142 2.25028 20.8359 2.25754C21.0236 2.32287 21.1464 2.67129 21.2042 3.29553C21.2186 3.44796 21.2258 3.53507 21.2258 3.54233C21.2258 3.54959 21.2547 3.57136 21.298 3.60765Z" fill="#7A7A7A"/>
<path d="M23.3418 1.21233C23.3201 1.21233 23.2984 1.21233 23.2912 1.21959C23.2768 1.24137 23.2551 1.42283 23.219 1.76399L23.1685 2.30839C23.1901 2.31565 23.2118 2.3229 23.2407 2.3229C23.2984 2.3229 23.349 2.30113 23.3995 2.25758C23.5223 2.1487 23.5801 1.93094 23.5801 1.61156V1.54623C23.5656 1.32121 23.4934 1.21233 23.3418 1.21233ZM22.3236 1.568C22.2586 1.70592 22.2225 1.86561 22.2297 2.04708C22.2297 2.15596 22.2369 2.22128 22.2441 2.25032C22.2658 2.3229 22.3163 2.3592 22.3958 2.3592C22.4752 2.3592 22.533 2.33016 22.5763 2.26484C22.6341 1.82206 22.6774 1.49542 22.6991 1.26314C22.5258 1.29943 22.403 1.40106 22.3236 1.568ZM24.0495 2.14144C23.9412 2.27209 23.8039 2.3592 23.6379 2.40275C23.5223 2.43178 23.4357 2.4463 23.3779 2.4463C23.3418 2.4463 23.2623 2.43904 23.1396 2.41727C23.0601 2.96893 23.0168 3.29556 23.0024 3.4117C22.9952 3.47703 22.9951 3.5351 23.0096 3.57139C23.0096 3.57865 23.024 3.59317 23.0457 3.61495C23.0674 3.63672 23.0746 3.65124 23.0746 3.6585C23.0746 3.68753 23.0385 3.70205 22.9663 3.70931C22.7641 3.73108 22.6413 3.7456 22.6052 3.7456C22.4608 3.7456 22.3886 3.69479 22.3886 3.59317C22.3886 3.49155 22.4102 3.28831 22.4608 2.97618C22.5113 2.64954 22.533 2.46808 22.533 2.43178C22.3813 2.48985 22.2441 2.51889 22.1141 2.51889C21.7747 2.51889 21.6086 2.35194 21.6086 2.01078C21.6086 1.7277 21.7242 1.50994 21.9553 1.36476C22.143 1.24137 22.3886 1.16878 22.7063 1.147C22.8796 1.13249 23.0746 1.12523 23.284 1.11797C23.3779 1.10345 23.4645 1.09619 23.5584 1.09619C23.6451 1.09619 23.7245 1.10345 23.7895 1.11797C23.9195 1.15426 24.0206 1.21959 24.0928 1.32847C24.165 1.43735 24.2011 1.55349 24.2011 1.6914C24.2083 1.85835 24.1578 2.01078 24.0495 2.14144Z" fill="#7A7A7A"/>
<path d="M26.8225 1.21229C26.5553 1.21229 26.4036 1.13244 26.3675 0.965494L26.122 0.98001C26.122 1.02356 26.1653 1.11067 26.2664 1.24132C26.3531 1.35746 26.4108 1.43005 26.4325 1.45182C26.4975 1.51715 26.5769 1.5607 26.6636 1.57522C26.8297 1.64781 26.9163 1.78572 26.9163 1.98896C26.9163 2.04703 26.9091 2.1051 26.9019 2.16317C26.8152 2.72209 26.7719 3.09228 26.7719 3.28101V3.31004C26.7791 3.36811 26.7863 3.4407 26.808 3.52054C26.8297 3.62942 26.8513 3.68023 26.8658 3.68023C26.873 3.68023 26.873 3.67297 26.873 3.6512C26.873 3.67297 26.8369 3.68749 26.7647 3.69475L26.4325 3.72378C26.3314 3.72378 26.2592 3.68023 26.2231 3.57861C26.2086 3.54232 26.2014 3.48425 26.2014 3.4044C26.2014 3.31004 26.2086 3.23745 26.2159 3.17939C26.2447 2.94711 26.2664 2.74386 26.2881 2.58417L26.3242 2.30835C26.3603 2.02526 26.3747 1.87283 26.3747 1.85831C26.3747 1.67684 26.317 1.58974 26.1942 1.597C26.0859 1.60425 25.992 1.70588 25.8981 1.90186C25.8259 2.06155 25.7826 2.20672 25.7609 2.33738C25.7248 2.58417 25.6959 2.90356 25.6743 3.28827C25.667 3.44796 25.6815 3.54232 25.7392 3.57861C25.7681 3.60765 25.7898 3.62216 25.7898 3.62942C25.7898 3.6512 25.7537 3.66571 25.6815 3.67297C25.4937 3.69475 25.3782 3.70201 25.3348 3.70201C25.2337 3.70201 25.1688 3.66571 25.1326 3.58587C25.1182 3.54958 25.111 3.47699 25.111 3.35359C25.111 3.09954 25.1326 2.81645 25.1688 2.50433C25.1976 2.26479 25.2699 2.07607 25.371 1.93089C25.4721 1.80024 25.6309 1.66958 25.8548 1.5607C25.7898 1.48812 25.6743 1.30665 25.4937 1.00179H25.2771C25.2121 1.19051 24.9593 1.29213 24.5261 1.28487C24.4827 1.28487 24.4611 1.27762 24.4611 1.24858C24.4611 1.24132 24.4827 1.19777 24.5333 1.11792C24.5766 1.03082 24.6055 0.980011 24.6055 0.950976C24.6127 0.943717 24.6127 0.936459 24.6127 0.921942C24.6127 0.892907 24.591 0.842096 24.5622 0.776769L24.5044 0.675148C24.5044 0.631596 24.6127 0.609818 24.8366 0.609818C25.0893 0.609818 25.2337 0.704181 25.2843 0.907424L26.3386 0.856612C26.3892 0.646111 26.5625 0.537231 26.873 0.537231C26.8947 0.537231 26.9236 0.537232 26.9524 0.544491C27.0824 0.551749 27.1474 0.566267 27.1474 0.588043C27.1474 0.573526 27.1258 0.609818 27.0896 0.682405C27.0535 0.754989 27.0391 0.820319 27.0391 0.856612V0.892905C27.0535 0.965492 27.0896 1.03808 27.1619 1.11067C27.1619 1.12518 27.1402 1.1397 27.1041 1.15422C27.0319 1.19777 26.938 1.21229 26.8225 1.21229Z" fill="#7A7A7A"/>
<path d="M30.5415 3.65121C30.5415 3.70202 30.4621 3.7238 30.3105 3.7238C30.2744 3.7238 30.2238 3.73106 30.1516 3.73832C30.0794 3.74557 30.0288 3.75283 29.9927 3.75283C29.8988 3.75283 29.8338 3.71654 29.8194 3.64395C29.8122 3.61492 29.805 3.54233 29.805 3.41168C29.805 3.3028 29.805 3.13585 29.8194 2.91083C29.8266 2.62774 29.8338 2.50434 29.8338 2.53338C29.8338 2.48983 29.8411 2.36643 29.8555 2.1777C29.87 2.01801 29.87 1.89462 29.87 1.80026C29.87 1.39377 29.7472 1.19053 29.5089 1.19053C29.3717 1.19053 29.2778 1.27763 29.2273 1.46636C29.1984 1.56072 29.1767 1.68412 29.1623 1.83655C29.1334 2.17771 29.1189 2.38821 29.1189 2.47531C29.1189 2.69307 29.155 2.82373 29.22 2.86728C29.2561 2.88905 29.2778 2.91083 29.2778 2.91809C29.2778 2.93261 29.2056 2.95438 29.0684 2.97616C28.9023 2.99793 28.8084 3.00519 28.7795 3.00519C28.664 3.00519 28.599 2.94712 28.5701 2.83098C28.5629 2.79469 28.5557 2.68581 28.5557 2.5116C28.5557 1.98898 28.6351 1.62605 28.8084 1.43006C28.9023 1.32118 29.0612 1.23408 29.2778 1.15423C29.48 1.08891 29.6605 1.05261 29.8266 1.05261C30.0288 1.05261 30.1805 1.11794 30.2888 1.25586C30.3899 1.37925 30.4332 1.53894 30.426 1.74218V1.83655C30.4188 2.11964 30.4116 2.3011 30.4043 2.38821L30.3827 2.64226C30.3682 2.88179 30.361 3.09956 30.361 3.31732V3.41168C30.361 3.44797 30.3682 3.48426 30.3899 3.52782C30.4116 3.57863 30.4332 3.60766 30.4621 3.61492C30.5199 3.61492 30.5415 3.6367 30.5415 3.65121Z" fill="#7A7A7A"/>
<path d="M32.7151 2.40994L32.6068 2.61318C32.4479 2.9253 32.318 3.19387 32.2241 3.43341C32.2096 3.46244 32.2096 3.48422 32.2096 3.506C32.2096 3.54229 32.2241 3.56406 32.2602 3.57858C32.2746 3.58584 32.2891 3.5931 32.2891 3.60762C32.2891 3.62939 32.2602 3.64391 32.1952 3.65117C31.9641 3.68746 31.8197 3.70924 31.7547 3.70924C31.6247 3.70924 31.5453 3.65843 31.5308 3.54955V3.53503C31.5308 3.47696 31.5814 3.3463 31.6897 3.14306L31.8125 2.9253C32.0652 2.45349 32.1952 2.16314 32.1952 2.06152V2.03249C32.1591 2.00345 32.1013 1.98893 32.0291 1.99619C32.0074 1.99619 31.9497 2.00345 31.863 2.01071C31.798 2.01797 31.7475 2.02523 31.7186 2.02523C31.6608 2.02523 31.6319 2.01071 31.6319 1.97442L31.668 1.89457C31.7114 1.80021 31.7402 1.72762 31.7619 1.69859C31.8486 1.53164 31.8991 1.37921 31.9352 1.23403C31.9063 1.13967 31.8341 1.08886 31.7186 1.08886C31.6752 1.08886 31.6319 1.09612 31.5886 1.11789C31.5308 1.13967 31.5019 1.16145 31.5019 1.19048C31.5019 1.37195 31.4369 1.51712 31.307 1.626C31.177 1.73488 31.0253 1.79295 30.8376 1.79295H30.787C30.7509 1.79295 30.7292 1.77843 30.7292 1.76392L30.7942 1.64052C30.8376 1.56067 30.8592 1.5026 30.8665 1.46631C30.8665 1.45905 30.8737 1.44454 30.8665 1.42276C30.8665 1.39372 30.852 1.35017 30.8376 1.2921C30.8159 1.23403 30.8087 1.19048 30.8087 1.16871C30.8087 1.14693 30.8303 1.12515 30.8665 1.11789C31.2997 1.02353 31.6319 0.97998 31.863 0.97998C32.1158 0.97998 32.318 1.01627 32.4624 1.09612C32.5202 1.12515 32.549 1.18322 32.549 1.25581C32.549 1.31388 32.4985 1.45905 32.4046 1.70585C32.3468 1.85102 32.318 1.92361 32.318 1.93812C32.318 1.97442 32.3468 1.98894 32.3974 1.98168C32.4407 1.98168 32.4985 1.97442 32.5779 1.9599C32.6574 1.94538 32.7151 1.93812 32.7585 1.93812C32.8523 1.93812 32.9029 1.96716 32.9029 2.02523C32.8668 2.07604 32.8162 2.20669 32.7151 2.40994Z" fill="#7A7A7A"/>
<path d="M35.3654 3.23747C35.351 3.41168 35.3727 3.50604 35.4304 3.52781C35.4521 3.53507 35.4593 3.54233 35.4593 3.55685C35.4593 3.58588 35.4304 3.6004 35.3654 3.61492C35.1344 3.65847 34.9971 3.68025 34.9394 3.68025C34.8022 3.68025 34.7372 3.62218 34.7372 3.50604V3.46249C34.7372 3.3899 34.7661 3.12859 34.8238 2.69307C34.8744 2.32288 34.896 2.08334 34.896 1.95994C34.896 1.82929 34.8744 1.73493 34.8455 1.67686C34.8022 1.58975 34.7155 1.5462 34.6 1.5462C34.4555 1.5462 34.3328 1.61879 34.2245 1.77122C34.145 1.88736 34.0873 2.02527 34.0511 2.19222C34.1234 2.1777 34.1739 2.17044 34.21 2.17044C34.2533 2.17044 34.275 2.18496 34.2678 2.214C34.2678 2.22851 34.2678 2.23577 34.2606 2.24303C34.2028 2.40998 34.1667 2.52612 34.145 2.58419C34.08 2.80921 34.0295 3.04149 33.9861 3.28102C33.9789 3.32457 33.9789 3.36812 33.9789 3.41168C33.9789 3.49152 34.0006 3.54233 34.0439 3.55685C34.0728 3.57137 34.0873 3.57862 34.0873 3.59314C34.0873 3.62218 34.0367 3.64395 33.9284 3.65847C33.7117 3.6875 33.5962 3.70202 33.5745 3.70202C33.4373 3.70202 33.3723 3.62944 33.3723 3.46975C33.3723 3.31731 33.4012 3.12133 33.459 2.89631C33.524 2.65677 33.5962 2.48257 33.6829 2.35917H33.6756H33.6395L33.5673 2.37369C33.5023 2.38095 33.4518 2.3882 33.4229 2.3882C33.394 2.3882 33.3796 2.38095 33.3723 2.37369C33.3651 2.36643 33.3651 2.34465 33.3651 2.31562C33.3651 2.15593 33.4734 1.9672 33.7045 1.74944C33.6612 1.74944 33.6034 1.7567 33.5168 1.77848C33.4373 1.79299 33.3723 1.80751 33.329 1.80751C33.2857 1.80751 33.264 1.80025 33.2568 1.78574C33.2351 1.74944 33.2207 1.66234 33.2207 1.53168V1.4591V1.35748C33.2207 1.30667 33.2279 1.27037 33.2279 1.2486V1.16875C33.2279 0.987284 33.199 0.885663 33.1485 0.871145C33.1124 0.863887 33.0907 0.849369 33.0907 0.827593C33.0907 0.805817 33.134 0.776784 33.2279 0.747749C33.4373 0.68968 33.5962 0.660645 33.7045 0.660645C33.784 0.660645 33.8201 0.675163 33.8273 0.711456V0.805818C33.8273 0.834852 33.8273 0.936474 33.8201 1.11068C33.8128 1.22682 33.8128 1.34296 33.8128 1.44458C33.8128 1.5462 33.8201 1.61153 33.8345 1.64782C33.9212 1.60427 34.0439 1.55346 34.2028 1.49539C34.4122 1.4228 34.6 1.39377 34.7661 1.39377C34.8383 1.39377 34.896 1.40103 34.9394 1.40829C35.1271 1.44458 35.2643 1.50991 35.3438 1.58975C35.4304 1.68412 35.4738 1.82203 35.4738 2.0035C35.4738 2.11238 35.4665 2.22126 35.4593 2.32288C35.4232 2.7221 35.3871 3.01971 35.3654 3.23747Z" fill="#7A7A7A"/>
</svg>
