<svg width="32" height="32" viewBox="0 0 32 32" fill="none" xmlns="http://www.w3.org/2000/svg">
<g clip-path="url(#clip0_153_946)">
<g clip-path="url(#clip1_153_946)">
<path d="M25.8844 26.2555C25.5363 27.3446 24.2581 28.3476 23.1579 28.6738C22.8604 28.7624 21.8654 28.9872 21.6095 28.9961C21.5238 29 21.4355 29 21.3511 28.9961C21.1237 28.9884 20.1781 28.7791 19.9014 28.7033C17.1333 27.9366 17.397 24.5539 17.345 22.282C17.2957 20.0885 17.3957 17.868 17.471 15.6436C17.484 15.2481 17.7217 14.8255 17.5776 14.385L17.4048 14.1731H13.5235C12.9545 14.1731 13.1091 16.8752 13.0689 17.3029C12.8857 19.2306 12.6142 21.5076 12.2609 23.4057C12.0102 24.7542 11.4425 27.4152 10.4878 28.3913C9.81365 29.0822 7.65347 28.8407 7.40536 27.7555C7.12089 26.5098 8.66146 25.0393 9.25639 24.0158C10.8892 21.2045 11.2607 17.5739 11.3711 14.3825C11.2217 13.9355 9.46682 14.3658 9.07453 14.507C8.81084 14.6021 8.56404 14.7639 8.34192 14.9347C7.55864 15.5332 7.01438 16.9793 6.02067 16.8611C5.84401 16.8393 5.78426 16.915 5.82452 16.6659C6.02457 15.4214 7.50409 13.0699 8.55105 12.3289C8.79915 12.153 9.93705 11.6174 10.1592 11.6174H26.6547C26.43 12.2249 26.1105 13.0866 25.7766 13.6247C24.8219 15.162 22.1668 13.9702 20.6951 14.3568L20.5925 14.5109C20.6223 15.6025 20.3599 16.7352 20.3106 17.8102C20.2274 19.6159 20.0625 24.9571 20.8665 26.3441C21.8563 28.0496 24.3634 27.324 25.1882 25.815C25.4909 25.7148 25.8585 25.9345 25.8844 26.2555Z" fill="black"/>
<path d="M30.9468 14.1305C30.7519 14.4567 30.105 15.5381 29.6985 15.4508C29.5894 15.4264 29.4465 15.2311 29.6062 15.1091C32.7069 11.4849 31.869 7.50114 27.6708 5.31018C20.7681 1.70781 9.31771 3.84355 3.55031 8.86118C-0.268646 12.1849 -0.819407 16.5437 3.66462 19.5668C4.01014 19.7993 4.29851 19.6246 4.27383 20.1127C4.25045 20.5763 3.59058 20.0972 3.37885 19.9765C-0.711593 17.6379 -0.960994 13.2071 1.94869 9.76787C7.38745 3.33755 21.5436 0.738188 28.7152 5.30119C31.9911 7.38556 32.9758 10.7452 30.9468 14.1305Z" fill="black"/>
</g>
</g>
<defs>
<clipPath id="clip0_153_946">
<rect width="31.88" height="32" fill="white"/>
</clipPath>
<clipPath id="clip1_153_946">
<rect width="32" height="26" fill="white" transform="translate(0 3)"/>
</clipPath>
</defs>
</svg>
