<svg width="123" height="34" viewBox="0 0 123 34" fill="none" xmlns="http://www.w3.org/2000/svg">
<g clip-path="url(#clip0_138_302)">
<path d="M33.7968 30.2153C33.3423 31.6303 31.6734 32.9335 30.2369 33.3573C29.8485 33.4724 28.5493 33.7644 28.2152 33.7761C28.1032 33.7811 27.9879 33.7811 27.8777 33.7761C27.5809 33.7661 26.3462 33.4941 25.9849 33.3957C22.3706 32.3995 22.7149 28.0044 22.6471 25.0526C22.5826 22.2026 22.7132 19.3176 22.8116 16.4275C22.8286 15.9136 23.1389 15.3646 22.9507 14.7923L22.7251 14.517H17.6573C16.9145 14.517 17.1163 18.0277 17.0637 18.5834C16.8246 21.088 16.4701 24.0464 16.0088 26.5126C15.6815 28.2647 14.9403 31.722 13.6937 32.9902C12.8135 33.8879 9.99295 33.5742 9.66901 32.1642C9.29758 30.5457 11.3091 28.6351 12.0859 27.3052C14.2178 23.6526 14.7029 18.9354 14.847 14.7889C14.652 14.2083 12.3606 14.7672 11.8484 14.9508C11.5041 15.0743 11.1819 15.2845 10.8919 15.5064C9.86914 16.284 9.1585 18.1629 7.86103 18.0094C7.63037 17.981 7.55236 18.0794 7.60493 17.7557C7.86612 16.1388 9.79791 13.0836 11.1649 12.1208C11.4889 11.8922 12.9746 11.1964 13.2646 11.1964H34.8026C34.5092 11.9857 34.092 13.1053 33.6561 13.8045C32.4095 15.8018 28.9428 14.2533 27.0212 14.7556L26.8872 14.9558C26.9262 16.3741 26.5836 17.8458 26.5191 19.2425C26.4106 21.5885 26.1952 28.5283 27.2451 30.3304C28.5374 32.5463 31.8108 31.6036 32.8878 29.6429C33.2829 29.5128 33.7629 29.7981 33.7968 30.2153Z" fill="#1A1A1A"/>
<path d="M40.4064 14.4619C40.152 14.8857 39.3074 16.2907 38.7765 16.1772C38.634 16.1455 38.4475 15.8919 38.6561 15.7333C42.7045 11.0245 41.6106 5.84847 36.129 3.00181C27.1163 -1.67865 12.1657 1.09625 4.63528 7.61553C-0.35107 11.9339 -1.07019 17.5972 4.78453 21.5251C5.23568 21.8271 5.6122 21.6002 5.57997 22.2343C5.54944 22.8366 4.68786 22.2142 4.4114 22.0574C-0.929419 19.0188 -1.25506 13.2621 2.54407 8.79357C9.64537 0.438819 28.1288 -2.93846 37.4926 2.99013C41.77 5.69829 43.0556 10.0634 40.4064 14.4619Z" fill="#1A1A1A"/>
</g>
<path d="M48.192 19.9312V7.54765H56.5364V9.7063H50.8102V12.6571H56.1071V14.8157H50.8102V17.7725H56.5606V19.9312H48.192ZM58.6179 19.9312V7.54765H61.2361V17.7725H66.5451V19.9312H58.6179ZM68.2789 19.9312V7.54765H76.6233V9.7063H70.8971V12.6571H76.194V14.8157H70.8971V17.7725H76.6475V19.9312H68.2789ZM80.9421 7.54765L83.9352 16.9562H84.0501L87.0492 7.54765H89.9516L85.6827 19.9312H82.3086L78.0337 7.54765H80.9421ZM91.9303 19.9312H89.1247L93.3997 7.54765H96.7737L101.043 19.9312H98.237L95.1351 10.3775H95.0383L91.9303 19.9312ZM91.755 15.0636H98.3821V17.1074H91.755V15.0636ZM100.548 9.7063V7.54765H110.719V9.7063H106.928V19.9312H104.34V9.7063H100.548ZM112.394 19.9312V7.54765H120.738V9.7063H115.012V12.6571H120.309V14.8157H115.012V17.7725H120.762V19.9312H112.394Z" fill="#1A1A1A"/>
<path d="M48.5664 31.7803V27.1421H51.3656V27.6404H49.1281V29.2076H51.2207V29.7058H49.1281V31.282H51.4018V31.7803H48.5664ZM58.1191 27.6404V27.1421H61.5977V27.6404H60.1392V31.7803H59.5775V27.6404H58.1191ZM68.4593 31.7803V27.1421H69.0209V29.2076H71.494V27.1421H72.0557V31.7803H71.494V29.7058H69.0209V31.7803H68.4593ZM79.7365 27.1421V31.7803H79.1749V27.1421H79.7365ZM90.7709 29.4612C90.7709 29.9504 90.6826 30.3731 90.5059 30.7294C90.3293 31.0858 90.0869 31.3605 89.7789 31.5538C89.4709 31.7471 89.1191 31.8437 88.7236 31.8437C88.328 31.8437 87.9762 31.7471 87.6682 31.5538C87.3602 31.3605 87.1179 31.0858 86.9412 30.7294C86.7646 30.3731 86.6763 29.9504 86.6763 29.4612C86.6763 28.972 86.7646 28.5493 86.9412 28.193C87.1179 27.8366 87.3602 27.5619 87.6682 27.3686C87.9762 27.1754 88.328 27.0787 88.7236 27.0787C89.1191 27.0787 89.4709 27.1754 89.7789 27.3686C90.0869 27.5619 90.3293 27.8366 90.5059 28.193C90.6826 28.5493 90.7709 28.972 90.7709 29.4612ZM90.2273 29.4612C90.2273 29.0596 90.1602 28.7206 90.0258 28.4443C89.8929 28.1681 89.7125 27.9589 89.4845 27.817C89.258 27.6751 89.0044 27.6041 88.7236 27.6041C88.4427 27.6041 88.1883 27.6751 87.9604 27.817C87.7339 27.9589 87.5535 28.1681 87.4191 28.4443C87.2862 28.7206 87.2198 29.0596 87.2198 29.4612C87.2198 29.8628 87.2862 30.2018 87.4191 30.4781C87.5535 30.7544 87.7339 30.9635 87.9604 31.1054C88.1883 31.2473 88.4427 31.3183 88.7236 31.3183C89.0044 31.3183 89.258 31.2473 89.4845 31.1054C89.7125 30.9635 89.8929 30.7544 90.0258 30.4781C90.1602 30.2018 90.2273 29.8628 90.2273 29.4612ZM97.7101 31.7803V27.1421H99.2772C99.6411 27.1421 99.9385 27.2078 100.17 27.3392C100.402 27.469 100.574 27.6449 100.686 27.8668C100.798 28.0888 100.853 28.3364 100.853 28.6097C100.853 28.8829 100.798 29.1313 100.686 29.3548C100.576 29.5782 100.405 29.7564 100.174 29.8892C99.9431 30.0206 99.6471 30.0863 99.2863 30.0863H98.163V29.588H99.2682C99.5173 29.588 99.7173 29.545 99.8683 29.4589C100.019 29.3729 100.129 29.2566 100.197 29.1102C100.266 28.9622 100.301 28.7954 100.301 28.6097C100.301 28.424 100.266 28.2579 100.197 28.1114C100.129 27.965 100.019 27.8502 99.8661 27.7672C99.7136 27.6826 99.5113 27.6404 99.2591 27.6404H98.2717V31.7803H97.7101ZM108.315 27.1421V31.7803H107.753V27.1421H108.315ZM115.626 31.7803H115.037L116.74 27.1421H117.32L119.023 31.7803H118.434L117.048 27.8759H117.012L115.626 31.7803ZM115.843 29.9685H118.217V30.4667H115.843V29.9685Z" fill="#1A1A1A"/>
<defs>
<clipPath id="clip0_138_302">
<rect width="41.7819" height="33.7811" fill="white"/>
</clipPath>
</defs>
</svg>
